<svg width="512" height="512" xmlns="http://www.w3.org/2000/svg">
 <style type="text/css">.st0{fill:#2B79C2;}
	.st1{fill:#802582CC;}
	.st2{fill:#333333;}</style>
 <g>
  <title>background</title>
  <rect fill="none" id="canvas_background" height="402" width="582" y="-1" x="-1"/>
 </g>
 <g>
  <title>Layer 1</title>
  <rect id="svg_2" height="430" width="478" y="43.453125" x="20.5" stroke-width="1.5" stroke="#000" fill="#fff"/>
  <path id="svg_1" d="m465.8,102.5c5.9,0 10.7,-4.8 10.7,-10.7l0,-24.6c0,-5.9 -4.8,-10.7 -10.7,-10.7l-419.6,0c-5.9,0 -10.7,4.8 -10.7,10.7l0,24.7c0,5.9 4.8,10.7 10.7,10.7l27.8,0l0,307l-27.8,0c-5.9,0 -10.7,4.8 -10.7,10.7l0,24.7c0,5.9 4.8,10.7 10.7,10.7l419.7,0c5.9,0 10.7,-4.8 10.7,-10.7l0,-24.7c0,-5.9 -4.8,-10.7 -10.7,-10.7l-17.9,0l0,-307l17.8,0l0,-0.1zm-282.8,0l0,109.5l-62,0l0,-109.5l62,0zm-23,143.1l0,20.8c0,4.4 -3.6,8 -8,8s-8,-3.6 -8,-8l0,-20.8c0,-4.4 3.6,-8 8,-8s8,3.6 8,8zm-39,163.9l0,-109.5l62,0l0,109.5l-62,0zm109,0l0,-307l62,0l0,307l-62,0zm171,0l-62,0l0,-307l62,0l0,307z" class="st1"/>
 </g>
</svg>
