<svg width="512" height="512" xmlns="http://www.w3.org/2000/svg">

 <g>
  <title>background</title>
  <rect fill="none" id="canvas_background" height="402" width="582" y="-1" x="-1"/>
 </g>
 <g>
  <title>Layer 1</title>
  <ellipse stroke="#000" ry="253.000008" rx="254.500007" id="svg_23" cy="255.453114" cx="255.99999" stroke-width="15" fill="#fff"/>
  <g id="svg_1">
   <g id="svg_2">
    <path id="svg_3" fill="#c7c7dd" d="m96,115.26l320,0l0,32.985l-320,0l0,-32.985z"/>
    <path id="svg_4" fill="#e7e7f2" d="m96,115.26l320,0l0,13.017l-320,0l0,-13.017z"/>
    <path id="svg_5" fill="#aaaac1" d="m145.641,148.245l0,215.509l-25.641,0l0,-215.509l25.641,0z"/>
    <path id="svg_6" fill="#8f8fa8" d="m145.641,148.245l0,18.257l-25.641,0l0,-18.257l25.641,0z"/>
    <path id="svg_7" fill="#aaaac1" d="m207.23,148.246l0,215.509l-25.641,0l0,-215.509l25.641,0z"/>
    <path id="svg_8" fill="#8f8fa8" d="m207.231,148.246l0,18.257l-25.641,0l0,-18.257l25.641,0z"/>
    <path id="svg_9" fill="#aaaac1" d="m329.64,148.246l0,215.509l-25.641,0l0,-215.509l25.641,0z"/>
    <path id="svg_10" fill="#8f8fa8" d="m329.64,148.245l0,18.257l-25.641,0l0,-18.257l25.641,0z"/>
    <path id="svg_11" fill="#aaaac1" d="m391.23,148.245l0,215.509l-25.641,0l0,-215.509l25.641,0z"/>
    <path id="svg_12" fill="#8f8fa8" d="m391.23,148.246l0,18.257l-25.641,0l0,-18.257l25.641,0z"/>
    <path id="svg_13" fill="#aaaac1" d="m268.82,148.246l0,215.509l-25.641,0l0,-215.509l25.641,0z"/>
    <path id="svg_14" fill="#8f8fa8" d="m268.82,148.246l0,18.257l-25.641,0l0,-18.257l25.641,0z"/>
    <path id="svg_15" fill="#c7c7dd" d="m96,363.754l320,0l0,32.985l-320,0l0,-32.985z"/>
    <path id="svg_16" fill="#e7e7f2" d="m96,363.754l320,0l0,14.412l-320,0l0,-14.412z"/>
    <path id="svg_17" fill="#c7c7dd" d="m101.971,220.406l58.03,0l0,73.437l-58.03,0l0,-73.437z"/>
    <path id="svg_18" fill="#e7e7f2" d="m101.971,220.406l58.03,0l0,11.372l-58.03,0l0,-11.372z"/>
    <g id="svg_19" fill="#402943">
     <circle id="svg_20" r="11.352" cy="249.782" cx="130.986"/>
     <path id="svg_21" d="m130.986,277.572c-3.23,0 -5.849,-2.619 -5.849,-5.849l0,-16.273l11.698,0l0,16.273c0,3.23 -2.619,5.849 -5.849,5.849z"/>
    </g>
   </g>
   <path id="svg_22" fill="#402943" d="m416,152.246c2.209,0 4,-1.791 4,-4l0,-32.985c0,-2.209 -1.791,-4 -4,-4l-320,0c-2.209,0 -4,1.791 -4,4l0,32.985c0,2.209 1.791,4 4,4l20.001,0l0,64.16l-14.03,0c-2.209,0 -4,1.791 -4,4l0,73.437c0,2.209 1.791,4 4,4l14.03,0l0,61.911l-20.001,0c-2.209,0 -4,1.791 -4,4l0,32.985c0,2.209 1.791,4 4,4l320,0c2.209,0 4,-1.791 4,-4l0,-32.985c0,-2.209 -1.791,-4 -4,-4l-20.77,0l0,-207.508l20.77,0zm-316,-32.985l312,0l0,24.985l-312,0l0,-24.985zm233.64,240.493l0,-207.508l27.949,0l0,207.508l-27.949,0zm-60.82,0l0,-207.508l27.18,0l0,207.508l-27.18,0zm-61.59,0l0,-207.508l27.949,0l0,207.508l-27.949,0zm-61.589,0l0,-61.911l10.36,0c2.209,0 4,-1.791 4,-4l0,-73.437c0,-2.209 -1.791,-4 -4,-4l-10.36,0l0,-64.16l27.949,0l0,207.508l-27.949,0zm35.949,-207.508l17.641,0l0,207.508l-17.641,0l0,-207.508zm61.59,0l17.641,0l0,207.508l-17.641,0l0,-207.508zm60.82,0l17.641,0l0,207.508l-17.641,0l0,-207.508zm-183.999,0l17.641,0l0,64.16l-17.641,0l0,-64.16zm-18.03,72.16l50.03,0l0,65.437l-50.03,0l0,-65.437zm18.03,73.437l17.641,0l0,61.911l-17.641,0l0,-61.911zm287.999,94.896l-312,0l0,-24.985l312,0l0,24.985zm-24.77,-32.985l-17.641,0l0,-207.508l17.641,0l0,207.508z"/>
  </g>
 </g>
</svg>
