<?xml version="1.0" standalone="no"?>
<!DOCTYPE svg PUBLIC "-//W3C//DTD SVG 20010904//EN"
 "http://www.w3.org/TR/2001/REC-SVG-20010904/DTD/svg10.dtd">
<svg version="1.0" xmlns="http://www.w3.org/2000/svg"
 width="256.000000pt" height="256.000000pt" viewBox="0 0 256.000000 256.000000"
 preserveAspectRatio="xMidYMid meet">
<metadata>
Created by potrace 1.16, written by Peter Selinger 2001-2019
</metadata>
<g transform="translate(0.000000,256.000000) scale(0.100000,-0.100000)"
fill="#194980" stroke="none">
<path d="M212 2239 c-68 -34 -121 -118 -142 -224 -8 -43 -10 -271 -8 -795 3
-734 3 -735 25 -790 29 -70 74 -125 126 -153 l42 -22 1030 0 c1162 0 1056 -8
1134 81 28 32 48 68 61 113 20 64 20 90 18 831 l-3 765 -26 55 c-33 71 -72
116 -120 140 -37 19 -66 20 -1066 20 l-1028 0 -43 -21z m2117 -121 c63 -65 62
-46 59 -879 l-3 -754 -28 -47 c-49 -85 38 -79 -1088 -76 l-1001 3 -33 37 c-66
71 -65 63 -65 858 0 797 0 792 65 857 l33 33 1015 0 1015 0 31 -32z"/>
<path d="M750 1892 c-272 -92 -500 -171 -506 -175 -6 -3 -9 -18 -6 -32 l4 -25
1027 2 1026 3 3 26 c3 26 0 27 -510 198 -282 94 -520 171 -528 171 -8 -1 -238
-76 -510 -168z"/>
<path d="M220 1553 c0 -4 66 -198 147 -431 l148 -423 119 3 119 3 47 135 47
135 117 3 116 3 0 -136 0 -135 165 0 165 0 0 135 0 135 75 0 c41 0 75 -4 75
-9 0 -5 -20 -67 -45 -137 -25 -69 -45 -128 -45 -130 0 -2 47 -4 104 -4 l105 0
27 85 28 85 156 0 156 0 28 -85 27 -85 109 0 109 0 -35 98 c-19 53 -88 246
-152 427 l-117 330 -121 3 -121 3 -45 -128 -46 -128 -136 -3 -136 -3 0 131 0
130 -165 0 -165 0 0 -130 0 -130 -60 0 -60 0 45 126 c25 70 45 128 45 131 0 2
-48 2 -107 1 l-106 -3 -100 -300 c-55 -165 -103 -293 -106 -285 -3 8 -49 143
-101 300 l-95 285 -107 3 c-60 1 -108 -1 -108 -5z m1160 -153 l0 -130 135 0
135 0 0 -130 0 -130 -135 0 -135 0 0 -135 0 -135 -135 0 -135 0 0 135 0 135
-135 0 -135 0 0 130 0 130 135 0 135 0 0 130 0 130 135 0 135 0 0 -130z m559
-205 c23 -74 44 -142 47 -150 5 -13 -10 -15 -96 -15 -92 0 -101 2 -96 17 4 9
25 77 48 150 23 73 45 133 48 133 4 0 25 -61 49 -135z"/>
<path d="M360 590 l0 -30 915 0 915 0 0 30 0 30 -915 0 -915 0 0 -30z"/>
<path d="M230 465 l0 -35 1040 0 1040 0 0 35 0 35 -1040 0 -1040 0 0 -35z"/>
</g>
</svg>
