<svg width="256" height="256" xmlns="http://www.w3.org/2000/svg" preserveAspectRatio="xMidYMid meet">
 <metadata>Created by potrace 1.16, written by Peter Selinger 2001-2019</metadata>

 <g>
  <title>background</title>
  <rect fill="none" id="canvas_background" height="402" width="582" y="-1" x="-1"/>
 </g>
 <g>
  <title>Layer 1</title>
  <rect stroke="#000" id="svg_7" height="181.999996" width="227" y="38.453125" x="15" stroke-width="1.5" fill="#fff"/>
  <g id="svg_1" fill="#194980" transform="translate(0,256) scale(0.10000000149011612,-0.10000000149011612) ">
   <path id="svg_2" d="m212,2239c-68,-34 -121,-118 -142,-224c-8,-43 -10,-271 -8,-795c3,-734 3,-735 25,-790c29,-70 74,-125 126,-153l42,-22l1030,0c1162,0 1056,-8 1134,81c28,32 48,68 61,113c20,64 20,90 18,831l-3,765l-26,55c-33,71 -72,116 -120,140c-37,19 -66,20 -1066,20l-1028,0l-43,-21zm2117,-121c63,-65 62,-46 59,-879l-3,-754l-28,-47c-49,-85 38,-79 -1088,-76l-1001,3l-33,37c-66,71 -65,63 -65,858c0,797 0,792 65,857l33,33l1015,0l1015,0l31,-32z"/>
   <path id="svg_3" d="m750,1892c-272,-92 -500,-171 -506,-175c-6,-3 -9,-18 -6,-32l4,-25l1027,2l1026,3l3,26c3,26 0,27 -510,198c-282,94 -520,171 -528,171c-8,-1 -238,-76 -510,-168z"/>
   <path id="svg_4" d="m220,1553c0,-4 66,-198 147,-431l148,-423l119,3l119,3l47,135l47,135l117,3l116,3l0,-136l0,-135l165,0l165,0l0,135l0,135l75,0c41,0 75,-4 75,-9c0,-5 -20,-67 -45,-137c-25,-69 -45,-128 -45,-130c0,-2 47,-4 104,-4l105,0l27,85l28,85l156,0l156,0l28,-85l27,-85l109,0l109,0l-35,98c-19,53 -88,246 -152,427l-117,330l-121,3l-121,3l-45,-128l-46,-128l-136,-3l-136,-3l0,131l0,130l-165,0l-165,0l0,-130l0,-130l-60,0l-60,0l45,126c25,70 45,128 45,131c0,2 -48,2 -107,1l-106,-3l-100,-300c-55,-165 -103,-293 -106,-285c-3,8 -49,143 -101,300l-95,285l-107,3c-60,1 -108,-1 -108,-5zm1160,-153l0,-130l135,0l135,0l0,-130l0,-130l-135,0l-135,0l0,-135l0,-135l-135,0l-135,0l0,135l0,135l-135,0l-135,0l0,130l0,130l135,0l135,0l0,130l0,130l135,0l135,0l0,-130zm559,-205c23,-74 44,-142 47,-150c5,-13 -10,-15 -96,-15c-92,0 -101,2 -96,17c4,9 25,77 48,150c23,73 45,133 48,133c4,0 25,-61 49,-135z"/>
   <path id="svg_5" d="m360,590l0,-30l915,0l915,0l0,30l0,30l-915,0l-915,0l0,-30z"/>
   <path id="svg_6" d="m230,465l0,-35l1040,0l1040,0l0,35l0,35l-1040,0l-1040,0l0,-35z"/>
  </g>
 </g>
</svg>