<svg width="256" height="256" xmlns="http://www.w3.org/2000/svg" preserveAspectRatio="xMidYMid meet">

 <g>
  <title>background</title>
  <rect fill="none" id="canvas_background" height="402" width="582" y="-1" x="-1"/>
 </g>
 <g>
  <title>Layer 1</title>
  <rect id="svg_7" height="182" width="223" y="37" x="16.5" stroke-width="1.5" stroke="none" fill="#82562a"/>
  <g id="svg_1" fill="#000" transform="translate(0,256) scale(0.10000000149011612,-0.10000000149011612) ">
   <path id="svg_2" d="m212,2239c-68,-34 -121,-118 -142,-224c-8,-43 -10,-271 -8,-795c3,-734 3,-735 25,-790c29,-70 74,-125 126,-153l42,-22l1030,0c1162,0 1056,-8 1134,81c28,32 48,68 61,113c20,64 20,90 18,831l-3,765l-26,55c-33,71 -72,116 -120,140c-37,19 -66,20 -1066,20l-1028,0l-43,-21zm2117,-121c63,-65 62,-46 59,-879l-3,-754l-28,-47c-49,-85 38,-79 -1088,-76l-1001,3l-33,37c-66,71 -65,63 -65,858c0,797 0,792 65,857l33,33l1015,0l1015,0l31,-32z"/>
   <path id="svg_3" d="m1109,2041c-47,-48 -38,-116 21,-146c63,-33 151,-9 174,46c18,42 9,74 -26,104c-24,20 -41,25 -85,25c-47,0 -59,-4 -84,-29z"/>
   <path id="svg_4" d="m1290,1863c-50,-19 -66,-75 -30,-108c11,-10 20,-22 20,-26c0,-5 -43,-41 -95,-80c-52,-39 -95,-76 -95,-81c0,-6 -14,-23 -30,-38l-30,-28l2,-234c3,-212 5,-233 21,-236c16,-3 17,12 17,212c0,118 4,226 10,240c19,50 100,43 120,-10c12,-31 34,-27 38,8c2,18 -5,32 -23,46l-25,20l69,51c37,28 71,51 74,51c3,0 11,-15 18,-32c9,-23 14,-115 17,-296c4,-254 4,-263 25,-277c32,-22 93,-19 118,6c20,20 20,28 17,287c-4,304 -9,327 -93,441c-56,75 -99,101 -145,84z"/>
   <path id="svg_5" d="m326,1414c-11,-29 -6,-188 8,-256c33,-155 103,-243 326,-413c186,-141 244,-209 265,-307l5,-28l109,0l109,0l12,33c33,92 29,221 -11,299c-32,62 -84,113 -224,218c-71,54 -166,132 -210,174c-76,71 -91,80 -142,77c-61,-3 -12,-120 101,-238c77,-82 71,-91 -28,-44c-138,66 -184,136 -216,326c-18,109 -22,123 -50,148c-35,31 -45,33 -54,11z"/>
   <path id="svg_6" d="m2220,1403c-28,-25 -32,-39 -50,-148c-32,-190 -78,-260 -216,-326c-98,-46 -107,-38 -37,34c33,34 77,87 97,118c60,96 57,132 -10,131c-34,-1 -49,-10 -119,-77c-44,-42 -140,-122 -212,-177c-155,-116 -204,-169 -234,-247c-26,-70 -28,-178 -4,-250l17,-51l108,0l109,0l12,43c26,98 73,151 259,292c223,170 293,258 326,413c14,68 19,227 8,256c-9,22 -19,20 -54,-11z"/>
  </g>
 </g>
</svg>
