<svg width="500" height="500" xmlns="http://www.w3.org/2000/svg">
 <!-- Created with Method Draw - http://github.com/duopixel/Method-Draw/ -->

 <g>
  <title>background</title>
  <rect fill="none" id="canvas_background" height="502" width="502" y="-1" x="-1"/>
  <g display="none" overflow="visible" y="0" x="0" height="100%" width="100%" id="canvasGrid">
   <rect fill="url(#gridpattern)" stroke-width="0" y="0" x="0" height="100%" width="100%"/>
  </g>
 </g>
 <g>
  <title>Layer 1</title>
  <ellipse stroke="#000" ry="242.000006" rx="240.499999" id="svg_1" cy="249.999994" cx="249.999999" stroke-width="0" fill="#fff"/>
  <defs>
   <style>.cls-1{fill:#373737;}</style>
  </defs>
  <g stroke="null" transform="translate(146,-530) " id="svg_55">
   <g stroke="null" transform="matrix(30.814593925895846,0,0,30.944451298423495,-195.0271131388989,1048.175911452382) " id="svg_53">
    <defs stroke="null" transform="translate(4.786691665649414,0) translate(0,-17.14362335205078) translate(-4.2446112632751465,0.06610051542520523) translate(8.113747596740723,0.6610051393508911) translate(5.131463527679443,-9.98117733001709) translate(5.1798529624938965,-6.224615573883057) translate(-4.442111492156982,-0.06750421971082687) translate(-2.8477437496185303,-0.4725295305252075) translate(0.009215999394655228,0) translate(0,-0.013500843197107315) translate(0.018431998789310455,0) translate(0.42393597960472107,5.0780158042907715) translate(0.009215999394655228,0) translate(-5.696500301361084,0) translate(0,-5.696000099182129) ">
     <rect stroke="null" width="16" id="svg_51" height="16"/>
    </defs>
    <path stroke="null" id="svg_54" d="m20.441589,-33.793829l-11.999,0c-1.101,0 -2,0.9 -2,2l0,12c0,1.102 0.899,2 2,2l11.999,0c1.102,0 2,-0.898 2,-2l0,-12c0,-1.1 -0.898,-2 -2,-2m-2.29,13.413l-3.71,-2.694l-3.709,2.694l1.419,-4.36l-3.71,-2.694l4.584,0l1.416,-4.359l1.416,4.359l4.584,0l-3.709,2.694l1.419,4.36z"/>
   </g>
  </g>
  <g stroke="null" id="svg_63">
   <g stroke="null" transform="matrix(5.990160256610449,0,0,6.017525424664116,22.16176618169993,25.588947503551026) " id="svg_60">
    <path stroke="null" id="svg_61" d="m55.035418,68.292915l0,-5.5c0,-0.5 -0.5,-1 -1,-1l-3.5,0l0,-38l1.8,0c0.6,0 1,-0.4 1,-1l0,-3.7l-30.7,0l0,3.7c0,0.6 0.4,1 1,1l1.8,0l0,38l-3.4,0c-0.5,0 -1,0.5 -1,1l0,5.5c0,0.6 0.5,1 1,1l12.1,0c0.5,0 1,-0.4 1,-1l0,-8.4c0,-1.6 1.3,-2.9 2.9,-2.9c0.8,0 1.5,0.3 2,0.8c0.5,0.5 0.8,1.3 0.8,2l0,8.5c0,0.6 0.5,1 1,1l12.2,0c0.5,0 1,-0.4 1,-1zm-19.1,-34.2c0,0.6 -0.5,1 -1,1l-4,0c-0.6,0 -1,-0.4 -1,-1l0,-4.8c0,-1.6 1.3,-3 3,-3c1.6,0 3,1.4 3,3l0,4.8zm10.2,16.6c0,0.6 -0.4,1 -1,1l-4,0c-0.6,0 -1,-0.4 -1,-1l0,-4.9c0,-1.7 1.3,-3 3,-3c1.7,0 3,1.3 3,3l0,4.9z"/>
    <path stroke="null" id="svg_62" d="m27.735418,5.292915l-6.8,0c-0.6,0 -1,0.4 -1,1l0,9.8c0,0.6 0.4,1 1,1l34.2,0c0.5,0 1,-0.4 1,-1l0,-9.8c0,-0.6 -0.5,-1 -1,-1l-6.8,0c-0.6,0 -1,0.4 -1,1l0,1.7c0,1.3 -1.1,2.4 -2.4,2.4c-1.3,0 -2.4,-1.1 -2.4,-2.4l0,-1.7c0,-0.6 -0.5,-1 -1,-1l-6.8,0c-0.6,0 -1,0.4 -1,1l0,1.7c0,1.3 -1.1,2.4 -2.4,2.4c-1.3,0 -2.4,-1.1 -2.4,-2.4l0,-1.7c-0.2,-0.6 -0.6,-1 -1.2,-1z"/>
   </g>
  </g>
 </g>
</svg>