<svg width="500" height="500" xmlns="http://www.w3.org/2000/svg">
 <!-- Created with Method Draw - http://github.com/duopixel/Method-Draw/ -->

 <g>
  <title>background</title>
  <rect fill="none" id="canvas_background" height="502" width="502" y="-1" x="-1"/>
  <g display="none" overflow="visible" y="0" x="0" height="100%" width="100%" id="canvasGrid">
   <rect fill="url(#gridpattern)" stroke-width="0" y="0" x="0" height="100%" width="100%"/>
  </g>
 </g>
 <g>
  <title>Layer 1</title>
  <ellipse stroke="#000" ry="242.000006" rx="240.499999" id="svg_1" cy="249.999994" cx="249.999999" stroke-width="15" fill="#fff"/>
  <defs>
   <style>.cls-1{fill:#373737;}</style>
  </defs>
  <g stroke="null" transform="translate(146,-530) " id="svg_55">
   <g stroke="null" transform="matrix(30.814593925895846,0,0,30.944451298423495,-195.0271131388989,1048.175911452382) " id="svg_53">
    <defs stroke="null" transform="translate(4.786691665649414,0) translate(0,-17.14362335205078) translate(-4.2446112632751465,0.06610051542520523) translate(8.113747596740723,0.6610051393508911) translate(5.131463527679443,-9.98117733001709) translate(5.1798529624938965,-6.224615573883057) translate(-4.442111492156982,-0.06750421971082687) translate(-2.8477437496185303,-0.4725295305252075) translate(0.009215999394655228,0) translate(0,-0.013500843197107315) translate(0.018431998789310455,0) translate(0.42393597960472107,5.0780158042907715) translate(0.009215999394655228,0) translate(-5.696500301361084,0) translate(0,-5.696000099182129) ">
     <rect stroke="null" width="16" id="svg_51" height="16"/>
    </defs>
    <path stroke="null" id="svg_54" d="m20.441589,-33.793829l-11.999,0c-1.101,0 -2,0.9 -2,2l0,12c0,1.102 0.899,2 2,2l11.999,0c1.102,0 2,-0.898 2,-2l0,-12c0,-1.1 -0.898,-2 -2,-2m-2.29,13.413l-3.71,-2.694l-3.709,2.694l1.419,-4.36l-3.71,-2.694l4.584,0l1.416,-4.359l1.416,4.359l4.584,0l-3.709,2.694l1.419,4.36z"/>
   </g>
  </g>
  <g stroke="null" id="svg_72">
   <g stroke="null" transform="matrix(30.75209560013048,0,0,30.881948504959134,60.31050002091045,808.647504190691) " id="svg_70">
    <defs stroke="null" transform="translate(0.03251810744404793,0) translate(-9.1900634765625,-1.6101115942001343) translate(9.921825408935547,-4.459090232849121) translate(4.007475852966309,-6.734108924865723) translate(2.9461965560913086,-4.8655219078063965) translate(2.759166955947876,-4.895909309387207) translate(-3.631103754043579,0.4171423316001892) translate(-3.2624638080596924,-3.521172046661377) translate(0.28569597005844116,5.243903636932373) translate(0.009215999394655228,0) translate(0.018431998789310455,0) translate(0,0.0005124374874867499) translate(0.000012937499377585482,0) translate(-5.696500301361084,0) translate(0,-5.696000099182129) ">
     <rect stroke="null" width="16" id="svg_68" height="16"/>
    </defs>
    <path stroke="null" id="svg_71" d="m12.200408,-26.120356l-11.999,0c-1.101,0 -2,0.9 -2,2l0,12c0,1.102 0.899,2 2,2l11.999,0c1.102,0 2,-0.898 2,-2l0,-12c0,-1.1 -0.898,-2 -2,-2m-2.29,13.413l-3.71,-2.694l-3.709,2.694l1.419,-4.36l-3.71,-2.694l4.584,0l1.416,-4.359l1.416,4.359l4.584,0l-3.709,2.694l1.419,4.36z"/>
   </g>
  </g>
 </g>
</svg>
