<svg width="500" height="500" xmlns="http://www.w3.org/2000/svg">
 <!-- Created with Method Draw - http://github.com/duopixel/Method-Draw/ -->

 <g>
  <title>background</title>
  <rect fill="none" id="canvas_background" height="502" width="502" y="-1" x="-1"/>
  <g display="none" overflow="visible" y="0" x="0" height="100%" width="100%" id="canvasGrid">
   <rect fill="url(#gridpattern)" stroke-width="0" y="0" x="0" height="100%" width="100%"/>
  </g>
 </g>
 <g>
  <title>Layer 1</title>
  <ellipse stroke="#000" ry="239.000001" rx="240.500009" id="svg_1" cy="249.999995" cx="250.000005" stroke-width="0" fill="#fff"/>
  <style transform="matrix(1.695421110424732,0,0,1.695421110424732,0,0) " type="text/css">.st0{display:none;fill:#262626;}
	.st1{display:none;}
	.st2{display:inline;fill:#4C4C4C;}
	.st3{display:inline;fill:#262626;}
	.st4{fill:#262626;}</style>
  <g stroke="null" id="svg_70">
   <g stroke="null" transform="matrix(3.1954209379386187,0,0,3.015733414538493,-326.27017073340255,-285.86861577981574) " id="svg_62">
    <path stroke="null" id="svg_67" d="m244.342496,177.690978l-47.6,-9.4l12.9,-18.9l-19.5,12.5l-9.8,-46.1l-9.7,46l-19.6,-12.4l12.6,18.7l-47.3,9.6l47.3,9.6l-12.6,18.7l19.3,-12.2l9.9,45.8l10.1,-45.9l19.3,12.3l-12.9,-18.9l47.6,-9.4zm-77,6.2l-37,-6.2l48,0l-11,6.2zm6.3,-15.8l6.7,-40.7l0,48.4l-6.7,-7.7zm6.7,59.9l0,-48.4l6.8,8.6l-6.8,39.8zm2,-50.3l9.2,-6.1l38.8,6.1l-48,0z" class="st0"/>
    <path stroke="null" id="svg_66" d="m231.042496,184.890978l0,9.9l-3.5,0c-1.1,11.2 -21.8,20.1 -47.2,20.1c-25.4,0 -46.1,-8.9 -47.2,-20.1l-4,0l0,-9.9l101.9,0zm5.4,-3.4l-112.2,0c-8.4,0 -11,-11 -3.4,-14.5l56.1,-25.8c2.1,-1 4.6,-1 6.8,0l56.1,25.8c7.6,3.5 5,14.5 -3.4,14.5zm-48.8,-12.3c0,-3.6 -3.1,-6.6 -6.8,-6.6c-3.8,0 -6.8,3 -6.8,6.6c0,3.6 3.1,6.6 6.8,6.6c3.7,0 6.8,-2.9 6.8,-6.6z" class="st0"/>
    <path stroke="null" id="svg_65" d="m205.142496,170.990978l-21.7,20.8l20.5,19.8l7.8,-7.5l3.1,3l-18.7,18.1l-3.1,-3l7.8,-7.6l-20.5,-19.8l-20.5,19.8l7.8,7.6l-3.1,3l-18.7,-18.1l3.1,-3l7.8,7.5l20.5,-19.8l-21.7,-20.8c-5.2,3.5 -12.5,3 -17.2,-1.5l-22,-21.2l18.7,-18.1l22.1,21.3c4.6,4.5 5.2,11.5 1.5,16.5l21.7,20.8l21.7,-20.9c-1.6,-2.2 -2.4,-4.7 -2.4,-7.3c0,-3.3 1.3,-6.6 3.9,-9.1l22.1,-21.3l18.7,18.1l-22,21.2c-4.7,4.5 -12,5 -17.2,1.5z" class="st0"/>
    <path stroke="null" id="svg_64" d="m244.342496,158.990978c0,-1.4 -0.4,-2.6 -0.8,-3.7c-0.4,-1.1 -1,-1.9 -1.4,-2.4c0.2,-1.3 0.1,-3.5 -1.2,-5.8c-0.4,-0.6 -0.8,-1.1 -1.2,-1.6c-0.4,-0.5 -0.9,-0.9 -1.3,-1.2c-0.9,-0.8 -1.8,-1.2 -2.4,-1.5c-0.4,-1.3 -1.5,-3.2 -3.8,-4.6c-1.2,-0.7 -2.5,-1.2 -3.6,-1.4c-1.1,-0.3 -2.2,-0.3 -2.9,-0.3c-1,-1 -2.8,-2.1 -5.6,-2.4c-1.4,-0.1 -2.9,0 -3.5,0.3c-0.8,0.2 -1.5,0.5 -2,0.8c-0.9,-0.6 -2.3,-1.2 -4.2,-1.2c-1,0 -1.9,0.2 -2.7,0.4c-0.8,0.2 -1.5,0.5 -2,0.8c-0.9,-0.6 -2.3,-1.2 -4.2,-1.2c-1,0 -1.9,0.2 -2.7,0.4c-0.8,0.2 -1.5,0.5 -2,0.8c-0.9,-0.6 -2.4,-1.2 -4.2,-1.2c-1,0 -1.9,0.2 -2.7,0.4c-0.8,0.2 -1.5,0.5 -2,0.8c-0.9,-0.6 -2.4,-1.2 -4.2,-1.2c-1,0 -1.9,0.2 -2.7,0.4c-0.8,0.2 -1.5,0.5 -2,0.8c-0.9,-0.6 -2.3,-1.2 -4.2,-1.2c-1,0 -1.9,0.2 -2.7,0.4c-0.8,0.2 -1.5,0.5 -2,0.8c-0.9,-0.6 -2.3,-1.2 -4.2,-1.2c-1,0 -1.9,0.2 -2.7,0.4c-0.8,0.2 -1.5,0.5 -2,0.8c-0.9,-0.6 -2.3,-1.2 -4.2,-1.2c-1,0 -1.9,0.2 -2.7,0.4c-0.8,0.2 -1.5,0.5 -2,0.8c-0.9,-0.6 -2.3,-1.2 -4.2,-1.2c-1,0 -1.9,0.2 -2.7,0.4c-0.8,0.2 -1.5,0.5 -2,0.8c-0.9,-0.6 -2.4,-1.2 -4.2,-1.2c-2.1,0 -3.7,0.7 -4.6,1.2c-0.9,-0.6 -2.2,-1.2 -3.9,-1.2l0,0l-14.4,0l0,16.3l14.7,0l0,-0.1c0.3,0 0.7,0.1 1,0.1c2.2,0 3.9,-0.8 4.9,-1.4c1,0.6 2.3,1.2 3.8,1.4c0.2,0 0.5,0 0.7,0c1.9,0 3.5,-0.8 4.3,-1.4c1,0.6 2.3,1.2 3.8,1.4c0.2,0 0.5,0 0.7,0c1.9,0 3.5,-0.8 4.3,-1.4c1,0.6 2.3,1.2 3.8,1.4c0.2,0 0.5,0 0.7,0c1.9,0 3.5,-0.8 4.3,-1.4c1,0.6 2.3,1.2 3.8,1.4c0.3,0 0.5,0 0.7,0c1.9,0 3.5,-0.8 4.3,-1.4c1,0.6 2.2,1.2 3.8,1.4c0.2,0 0.5,0 0.7,0c1.9,0 3.5,-0.8 4.3,-1.4c1,0.6 2.2,1.2 3.8,1.4c0.2,0 0.5,0 0.7,0c1.9,0 3.5,-0.8 4.3,-1.4c1,0.6 2.2,1.2 3.8,1.4c0.2,0 0.5,0 0.7,0c1.9,0 3.5,-0.8 4.3,-1.4c1,0.6 2.3,1.2 3.8,1.4c0.2,0 0.5,0 0.7,0c1.9,0 3.5,-0.8 4.3,-1.4c1,0.6 2.3,1.2 3.8,1.4c0.2,0 0.5,0 0.7,0c1.9,0 3.5,-0.8 4.3,-1.4c0.2,0.2 0.5,0.3 0.8,0.5c0.2,0.1 0.3,0.3 0.5,0.4c0.4,0.2 0.7,0.5 1.1,0.6c0.1,0 0.3,0.1 0.4,0.1c1,0.2 2.1,-0.3 2.8,-0.5c0.3,0.8 0.6,1.6 1.2,2.2c0.1,0.1 0.2,0.2 0.3,0.3c0.8,0.7 2,0.7 2.8,0.8c-0.1,0.8 -0.2,1.7 0,2.5c0,0.1 0.1,0.3 0.1,0.4c0.4,0.9 1.4,1.5 2.1,1.9c-0.5,0.7 -1,1.4 -1.2,2.2c0,0.1 0,0.3 0,0.4c0,0.5 0,1 0.3,1.4c0.2,0.4 0.4,0.9 0.7,1.2c-0.4,0.2 -0.8,0.4 -1.2,0.6c-0.4,0.2 -0.7,0.5 -1,0.8c-0.1,0.1 -0.2,0.2 -0.2,0.3c-0.2,0.5 -0.4,0.9 -0.4,1.4c-0.1,0.5 0,1 0,1.4c-0.4,0 -0.9,0 -1.4,0c-0.4,0 -0.9,0.1 -1.3,0.3c-0.1,0 -0.3,0.1 -0.4,0.2c-0.9,0.6 -1.4,1.5 -1.7,2.3c-0.8,-0.4 -1.6,-0.8 -2.4,-0.9c-0.1,0 -0.3,0 -0.4,0c-0.3,0 -0.4,0.1 -0.8,0.2c-0.4,0.1 -0.8,0.2 -1.2,0.3c-0.7,0.3 -1.3,0.6 -1.8,0.9c-1,-0.6 -2.3,-1.2 -3.8,-1.3c-0.3,0 -0.5,0 -0.7,0c-1.9,0 -3.5,0.8 -4.3,1.4c-1,-0.6 -2.2,-1.2 -3.8,-1.3c-0.2,0 -0.5,0 -0.7,0c-1.9,0 -3.5,0.8 -4.3,1.4c-1,-0.6 -2.2,-1.2 -3.8,-1.3c-0.2,0 -0.5,0 -0.7,0c-1.9,0 -3.5,0.8 -4.3,1.4c-1,-0.6 -2.2,-1.2 -3.8,-1.3c-0.2,0 -0.5,0 -0.7,0c-1.9,0 -3.5,0.8 -4.3,1.4c-0.5,-0.3 -1.1,-0.6 -1.7,-0.8c-0.9,-0.2 -1.9,-0.4 -3,-0.3c-0.4,0 -0.7,0.1 -1.1,0.1c-2.8,0.4 -4.7,1.9 -5.6,2.9c-1.4,-0.1 -3.4,0.2 -5.3,1.2c-0.3,0.2 -0.6,0.4 -0.9,0.6c-2.3,1.6 -3.2,3.8 -3.5,5c-1.3,0.6 -2.9,1.7 -4.2,3.5c-0.2,0.3 -0.4,0.6 -0.5,0.9c-1.3,2.5 -1.1,4.8 -0.7,6.1c-0.9,1.1 -1.8,2.8 -2,4.9c0,0.3 -0.1,0.7 0,1c0,1.4 0.4,2.6 0.8,3.5c0.4,1 1,1.7 1.4,2.2c-0.1,0.7 -0.2,1.5 -0.1,2.4c0.1,0.9 0.3,1.9 0.7,2.9c0.1,0.3 0.3,0.6 0.4,0.9c1.4,2.4 3.4,3.6 4.7,4c0.2,0.7 0.5,1.4 1,2.2c0.5,0.8 1.1,1.6 2,2.2c0.3,0.2 0.6,0.4 0.8,0.6c2.4,1.5 4.8,1.7 6.1,1.5c1,1 2.6,2.1 4.8,2.6c0.3,0.1 0.7,0.1 1.1,0.2c0.7,0.1 1.4,0 2,0c0.3,0 0.6,-0.1 0.9,-0.1c0.3,0 0.4,-0.1 0.6,-0.2c0.7,-0.3 1.3,-0.6 1.8,-0.9c1,0.6 2.3,1.2 3.8,1.4c0.2,0 0.5,0 0.7,0c1.9,0 3.5,-0.8 4.3,-1.4c1,0.6 2.3,1.2 3.8,1.4c0.2,0 0.5,0 0.7,0c1.9,0 3.5,-0.8 4.3,-1.4c1,0.6 2.3,1.2 3.8,1.4c0.3,0 0.5,0 0.7,0c1.9,0 3.4,-0.8 4.3,-1.4c0.6,0.3 1.2,0.7 2,0.9l0,0.5l14.7,0l0,-16.7l-14.2,0l0,0.1c-1.7,0.1 -3.2,0.6 -4,1.1c-0.9,-0.6 -2.3,-1.1 -4,-1.1l-0.1,0c-1,0 -1.9,0.2 -2.7,0.4c-0.8,0.2 -1.5,0.5 -2,0.8c-0.9,-0.6 -2.3,-1.2 -4.2,-1.2c-1,0 -1.9,0.2 -2.7,0.4c-0.8,0.2 -1.5,0.5 -2,0.8c-0.9,-0.6 -2.3,-1.2 -4.2,-1.2c-1,0 -1.9,0.2 -2.7,0.4c-0.8,0.2 -1.5,0.5 -2,0.8c-0.8,-0.6 -1.4,-1.3 -2.4,-1.4c-0.5,-0.1 -1,-0.1 -1.5,0c-0.5,0.1 -1,0.2 -1.4,0.3c-0.2,-0.8 -0.6,-1.7 -1.4,-2.3c-0.4,-0.3 -0.9,-0.5 -1.4,-0.7c-0.5,-0.2 -1,-0.3 -1.4,-0.4c0.1,-0.8 0.3,-1.8 -0.1,-2.6c-0.2,-0.5 -0.6,-0.9 -0.9,-1.2c-0.4,-0.4 -0.7,-0.7 -1,-0.9c0.2,-0.3 0.5,-0.7 0.7,-1.1c0.2,-0.4 0.4,-0.8 0.4,-1.3c0,-0.5 -0.1,-1 -0.2,-1.5c-0.1,-0.5 -0.3,-0.9 -0.5,-1.3c0.8,-0.3 1.6,-0.8 2.1,-1.6c0.3,-0.5 0.5,-0.9 0.5,-1.4c0.1,-0.5 0.2,-1 0.2,-1.4c0.8,0 1.8,0 2.7,-0.5c0.4,-0.3 0.8,-0.6 1.1,-1c0.4,-0.3 0.6,-0.8 0.8,-1.1c0.7,0.4 1.6,0.9 2.6,0.8c0.4,-0.1 1.5,-0.2 2.2,-0.4c0.8,-0.2 1.5,-0.5 2,-0.8c0.9,0.6 2.4,1.2 4.2,1.2c1,0 1.9,-0.2 2.7,-0.4c0.8,-0.2 1.5,-0.5 2,-0.8c0.9,0.6 2.4,1.2 4.2,1.2c1,0 1.9,-0.2 2.7,-0.4c0.8,-0.2 1.5,-0.5 2,-0.8c0.9,0.6 2.3,1.2 4.2,1.2c1,0 1.9,-0.2 2.7,-0.4c0.8,-0.2 1.5,-0.5 2,-0.8c0.9,0.6 2.3,1.2 4.2,1.2c1,0 1.9,-0.2 2.7,-0.4c0.8,-0.2 1.5,-0.5 2,-0.8c0.2,0.1 0.5,0.3 0.8,0.4c0.2,0.1 0.7,0.3 1.2,0.4c1,0.2 2.2,0.3 3.6,0c1.4,-0.2 2.7,-0.8 3.6,-1.3c1,-0.6 1.8,-1.2 2.3,-1.7c1.4,0 3.6,-0.3 5.7,-1.9c1.2,-0.8 2,-1.8 2.6,-2.7c0.6,-1 1,-1.8 1.2,-2.5c1.3,-0.6 3.1,-1.8 4.2,-4.3c0.7,-1.3 0.9,-2.5 1,-3.6c0.1,-1.2 0,-2.1 -0.1,-2.8c0.4,-0.6 0.8,-1.3 1.2,-2.3c0.7,-1.1 1,-2.2 0.9,-3.5zm-112.3,-11.6c-0.3,0 -0.7,0 -1,-0.1l0,-4.1l3.7,3.6c-0.7,0.3 -1.6,0.6 -2.7,0.6zm9.5,0c-0.2,0 -0.3,0 -0.5,0c-1.7,-0.2 -3.1,-1.2 -3.6,-1.7l-6.1,-5.9l-0.2,-0.2l0,-3.1c1.9,0 3,1.1 3.1,1.2l0,0l8,7.7l1.5,1.4c-0.6,0.4 -1.4,0.6 -2.2,0.6zm8.8,0c-0.1,0 -0.3,0 -0.5,0c-1.7,-0.2 -3.1,-1.2 -3.6,-1.7l-0.4,-0.4l-1.7,-1.6l-7,-6.7c0.7,-0.2 1.5,-0.5 2.5,-0.5c2.1,0 3.2,1.2 3.4,1.3l0,0l9.5,9.2c-0.6,0.2 -1.3,0.4 -2.2,0.4zm8.9,0c-0.1,0 -0.3,0 -0.5,0c-1.7,-0.2 -3.1,-1.2 -3.6,-1.7l-0.4,-0.4l-1.8,-1.7l-6.9,-6.7c0.7,-0.2 1.5,-0.5 2.5,-0.5c2.1,0 3.2,1.2 3.3,1.3l9.5,9.2c-0.5,0.3 -1.3,0.5 -2.1,0.5zm8.8,0c-0.1,0 -0.3,0 -0.5,0c-1.7,-0.2 -3.1,-1.2 -3.6,-1.7l-0.4,-0.4l-1.8,-1.7l-6.9,-6.7c0.7,-0.2 1.5,-0.5 2.5,-0.5c2.1,0 3.2,1.2 3.3,1.3l0,0l2.8,2.7l5.2,5.1l1.4,1.4c-0.4,0.3 -1.1,0.5 -2,0.5zm8.9,0c-0.1,0 -0.3,0 -0.5,0c-1.7,-0.2 -3.1,-1.2 -3.6,-1.7l-0.4,-0.4l-1.8,-1.7l-6.9,-6.7c0.7,-0.2 1.5,-0.5 2.5,-0.5c2.1,0 3.2,1.2 3.3,1.3l0,0l2.8,2.7l5.2,5.1l1.4,1.4c-0.4,0.3 -1.2,0.5 -2,0.5zm8.8,0c-0.2,0 -0.3,0 -0.5,0c-1.7,-0.2 -3.1,-1.2 -3.6,-1.7l-0.4,-0.4l-1.8,-1.7l-6.9,-6.7c0.7,-0.2 1.5,-0.5 2.5,-0.5c2.1,0 3.2,1.2 3.3,1.3l0,0l2.8,2.7l5.2,5.1l1.4,1.4c-0.4,0.3 -1.1,0.5 -2,0.5zm8.9,0c-0.2,0 -0.3,0 -0.5,0c-1.7,-0.2 -3.1,-1.2 -3.6,-1.7l-0.4,-0.4l-1.8,-1.7l-6.9,-6.7c0.7,-0.2 1.5,-0.5 2.5,-0.5c2.1,0 3.2,1.2 3.4,1.3l0,0l2.8,2.7l5.2,5.1l1.4,1.4c-0.5,0.3 -1.3,0.5 -2.1,0.5zm8.8,0c-0.1,0 -0.3,0 -0.5,0c-1.6,-0.2 -3,-1.2 -3.6,-1.7l-0.4,-0.4l-1.7,-1.7l-6.9,-6.7c0.7,-0.2 1.5,-0.5 2.5,-0.5c2.1,0 3.2,1.2 3.4,1.3l0,0l2.8,2.7l5.2,5.1l1.4,1.4c-0.6,0.3 -1.3,0.5 -2.2,0.5zm8.9,0c-0.1,0 -0.3,0 -0.5,0c-1.7,-0.2 -3.1,-1.2 -3.6,-1.7l-0.4,-0.4l-1.8,-1.7l-6.9,-6.7c0.7,-0.2 1.5,-0.5 2.5,-0.5c2.1,0 3.2,1.2 3.3,1.3l0,0l2.8,2.7l5.2,5.1l1.4,1.4c-0.4,0.3 -1.1,0.5 -2,0.5zm7.7,0.3c-0.1,0 -0.2,0 -0.3,-0.1c-0.6,-0.2 -1.1,-0.6 -1.5,-0.9c-0.4,-0.4 -0.8,-0.8 -1.1,-1l-0.4,-0.4l-1.8,-1.7l-6.9,-6.7c0.7,-0.2 1.5,-0.5 2.5,-0.5c2.1,0 3.2,1.2 3.3,1.3l0,0l2.8,2.7c0,0 0.3,0.3 0.8,0.8c0.5,0.5 1.2,1.2 1.7,1.8c0.5,0.7 1,1.4 1.3,2c0.3,0.6 0.5,0.9 0.5,0.9s0.2,0.4 0.4,0.8c0.2,0.4 0.3,0.8 0.3,0.8c-0.5,0.2 -1.1,0.3 -1.6,0.2zm7.2,1.3c0,0 0,0.5 -0.1,0.9c0,0.4 -0.1,0.9 -0.1,0.9c-0.5,-0.1 -1.1,-0.2 -1.5,-0.6c-0.1,-0.1 -0.2,-0.1 -0.2,-0.2c-0.4,-0.4 -0.7,-1 -0.9,-1.5c-0.2,-0.6 -0.4,-1 -0.5,-1.4l-0.1,-0.5c0,0 -0.1,-0.6 -0.3,-1.1c-0.2,-0.5 -0.4,-1 -0.4,-1s-0.8,-2.1 -2.5,-4c-0.8,-1 -1.7,-1.9 -2.5,-2.5c-0.8,-0.7 -1.1,-1.1 -1.2,-1.1c0.6,-0.3 1.8,-0.4 3.1,-0.3c2.7,0.3 3.8,1.9 3.9,2l0,0c0,0 0.2,0.2 0.4,0.6c0.2,0.3 0.5,0.8 0.8,1.2c0.5,0.9 0.9,1.8 0.9,1.8s0.2,0.4 0.4,1.1c0.2,0.6 0.5,1.5 0.6,2.4c0.2,0.8 0.2,1.7 0.3,2.3c-0.1,0.6 -0.1,1 -0.1,1zm-19.2,58.8l0,2.4l-1.9,-1.8c0.6,-0.3 1.2,-0.5 1.9,-0.6zm-8.1,0.2l0,0c1.7,0 2.8,0.8 3.2,1.1l1,1l3.9,3.8l0,4.4c-0.6,-0.3 -1,-0.6 -1.4,-0.9l-2.3,-2.3l-6.9,-6.7c0.7,-0.2 1.5,-0.4 2.5,-0.4zm-8.8,0c2.1,0 3.2,1.2 3.3,1.3l0,0l2.8,2.7l5.2,5l1.5,1.4c-0.6,0.3 -1.3,0.5 -2.2,0.5c-0.1,0 -0.3,0 -0.5,0c-1.7,-0.2 -3.1,-1.2 -3.6,-1.7l-9.1,-8.8c0.7,-0.2 1.6,-0.4 2.6,-0.4zm-8.9,0c2.1,0 3.2,1.2 3.3,1.3l0,0l2.8,2.7l5.2,5.1l1.4,1.4c-0.6,0.3 -1.3,0.5 -2.2,0.5c-0.1,0 -0.3,0 -0.5,0c-1.7,-0.2 -3.1,-1.2 -3.6,-1.7l-2.2,-2.1l-6.9,-6.7c0.9,-0.3 1.7,-0.5 2.7,-0.5zm-7.6,-0.3c1.4,0.2 2.1,1.4 2.2,1.5l0,0c0,0 0.1,0.2 0.3,0.4s0.6,0.6 0.9,0.9c0.7,0.7 1.4,1.3 1.4,1.3l5.2,5.1l1.4,1.4c-0.6,0.3 -1.3,0.5 -2.2,0.5c-0.1,0 -0.3,0 -0.5,0c-1.7,-0.2 -3.1,-1.2 -3.6,-1.7l-0.4,-0.4l-1.7,-1.7c0,0 -0.4,-0.4 -1.1,-1.1c-0.7,-0.6 -1.4,-1.5 -2.1,-2.5c-1.1,-1.7 -1.7,-3.7 -1.7,-3.7c0.6,-0.1 1.2,-0.2 1.9,0zm-7.1,-3.4c0.5,0.2 1.1,0.4 1.6,0.8c1.1,0.8 1.3,2.2 1.3,2.4l0,0c0,0 0,0.2 0.1,0.5c0.1,0.3 0.2,0.7 0.3,1.1c0.2,0.9 0.6,1.7 0.6,1.7s0.2,0.4 0.5,1c0.3,0.6 0.7,1.3 1.3,2.1c0.5,0.8 1.2,1.5 1.7,2c0.5,0.6 0.9,0.9 0.9,0.9s0.4,0.4 0.8,0.7c0.4,0.4 0.9,0.7 0.9,0.7c-0.7,0.3 -1.7,0.5 -2.8,0.4c-0.2,0 -0.4,-0.1 -0.6,-0.1c-0.5,-0.1 -1,-0.3 -1.5,-0.5c-0.4,-0.2 -0.8,-0.5 -1.2,-0.8c-0.7,-0.5 -1.1,-1.1 -1.4,-1.4l-0.3,-0.6c0,0 -0.3,-0.6 -0.6,-1.1c-0.3,-0.6 -0.5,-1.2 -0.5,-1.2s-0.3,-0.6 -0.5,-1.4c-0.3,-0.9 -0.5,-2 -0.6,-3.1c-0.5,-2.1 0,-4.1 0,-4.1zm66.8,-50.1c0.4,-0.8 0.9,-1.9 1.2,-3.1c0.4,-1.2 0.6,-2.4 0.7,-3.4c0.1,-1 0.1,-1.7 0.1,-1.7c0.7,0.5 1.5,1.3 2.2,2.3c1.3,2.3 0.6,4.1 0.6,4.3l0,0c0,0 -0.1,0.2 -0.2,0.6c-0.1,0.4 -0.4,0.9 -0.6,1.3c-0.2,0.5 -0.5,0.9 -0.7,1.2c-0.2,0.3 -0.4,0.5 -0.4,0.5s-1,1.6 -2.3,2.8c-0.6,0.6 -1.3,1.2 -1.8,1.5c-0.5,0.4 -0.8,0.6 -0.8,0.6s-0.4,0.2 -0.8,0.4c-0.4,0.2 -0.8,0.4 -0.8,0.4c-0.3,-0.5 -0.4,-1 -0.4,-1.5c0,-0.1 0,-0.2 0,-0.3c0.2,-1.1 1.2,-2.2 1.6,-2.7l0.4,-0.4c0.1,0 1.4,-1.7 1.4,-1.8c-0.1,0.2 0.2,-0.2 0.6,-1zm-5.9,-13.5c-0.4,-0.9 -0.7,-1.5 -0.7,-1.5c0.9,0.1 2,0.5 3.1,1.1c2.3,1.4 2.5,3.4 2.5,3.5l0,0c0,0 0,0.3 0.1,0.6c0,0.4 0,0.9 0.1,1.4c0,1 -0.1,2 -0.1,2s-0.1,1.9 -0.7,3.5c-0.2,0.8 -0.6,1.6 -0.9,2.2c-0.1,0.3 -0.3,0.5 -0.4,0.7c-0.1,0.2 -0.1,0.3 -0.1,0.3s-0.2,0.4 -0.5,0.8c-0.2,0.4 -0.5,0.7 -0.5,0.7c-0.4,-0.3 -0.8,-0.7 -1.1,-1.2c0,-0.1 -0.1,-0.2 -0.1,-0.3c-0.1,-0.6 -0.1,-1.1 -0.1,-1.7c0.1,-0.6 0.2,-1.1 0.2,-1.4l0.1,-0.5c0.1,0 0.4,-2.2 0.4,-2.2c0,0 0,-0.1 0,-0.4c0,-0.3 0,-0.6 0,-1c0,-0.9 -0.1,-2.1 -0.3,-3.3c-0.2,-1.2 -0.7,-2.4 -1,-3.3zm-68.1,59.9c-0.3,0.6 -0.7,1.4 -1.1,2.3c-0.3,0.9 -0.6,1.8 -0.7,2.5c-0.2,0.7 -0.2,1.2 -0.2,1.2s-0.1,0.6 -0.2,1.1c-0.1,0.6 -0.1,1.1 -0.1,1.1c-0.7,-0.4 -1.4,-1.1 -2,-2c-0.1,-0.2 -0.2,-0.3 -0.3,-0.5c-0.4,-1 -0.5,-2 -0.5,-2.9c0,-0.8 0.2,-1.5 0.4,-1.9l0.3,-0.6c0,0 0.3,-0.6 0.6,-1.1c0.4,-0.6 0.8,-1.1 0.8,-1.1s0.4,-0.5 0.9,-1.2c0.6,-0.7 1.4,-1.6 2.3,-2.3c0.9,-0.7 1.8,-1.3 2.5,-1.7c0.7,-0.4 1.2,-0.6 1.2,-0.6c0.2,0.5 0.3,1.1 0.2,1.7c0,0.3 -0.1,0.6 -0.2,0.9c-0.1,0.3 -0.2,0.5 -0.4,0.7c-0.3,0.4 -0.6,0.7 -0.7,0.7l0,0c0,0 -0.6,0.6 -1.2,1.2c-0.3,0.3 -0.6,0.7 -0.8,1c-0.2,0.3 -0.3,0.5 -0.3,0.5s-0.2,0.5 -0.5,1zm6.2,15.3c-0.8,0 -1.7,-0.3 -2.7,-0.9c-0.2,-0.1 -0.3,-0.2 -0.5,-0.4c-0.9,-0.7 -1.4,-1.5 -1.8,-2.3c-0.4,-0.8 -0.5,-1.4 -0.5,-1.9l0,-0.6c0,0 0,-0.7 0,-1.3c0,-0.6 0.1,-1.3 0.1,-1.3s0,-0.6 0.2,-1.5c0.2,-0.9 0.5,-2 0.9,-3.1c0.8,-2.1 2.2,-3.7 2.2,-3.7c0.3,0.4 0.8,0.9 1,1.5c0.6,1.2 0.1,2.5 0,2.7l0,0c0,0 -0.1,0.2 -0.2,0.5c-0.1,0.3 -0.2,0.7 -0.3,1.1c-0.1,0.4 -0.2,0.9 -0.2,1.2c0,0.3 -0.1,0.6 -0.1,0.6s0,0.4 -0.1,1.1c0,0.7 0,1.5 0.1,2.5c0.1,0.9 0.3,1.8 0.5,2.6c0.2,0.7 0.4,1.1 0.4,1.1s0.2,0.5 0.4,1c0.3,0.6 0.6,1.1 0.6,1.1zm-0.1,-26.8c-0.7,1.1 -2.1,1.5 -2.3,1.5l0,0c0,0 -0.8,0.2 -1.7,0.6c-0.8,0.3 -1.6,0.8 -1.6,0.8s-0.4,0.2 -1,0.6c-0.5,0.4 -1.3,0.9 -2,1.5c-0.7,0.6 -1.4,1.3 -1.9,1.9c-0.5,0.6 -0.8,1 -0.8,1s-0.3,0.5 -0.7,0.9c-0.3,0.5 -0.6,0.9 -0.6,0.9c-0.4,-0.6 -0.7,-1.6 -0.8,-2.7c0,-0.2 0,-0.4 0,-0.6c0.2,-2.2 1.6,-3.7 2.2,-4.2l0.5,-0.4c0,0 0.6,-0.4 1.1,-0.8c0.5,-0.4 1.1,-0.7 1.1,-0.7s0.6,-0.3 1.4,-0.7c0.8,-0.4 2,-0.8 3.1,-1c1.2,-0.2 2.2,-0.4 3.1,-0.4c0.8,0 1.3,0 1.3,0c0.1,0.6 -0.1,1.2 -0.4,1.8zm4.3,-4.2c-1.2,0.7 -2.6,0.4 -2.7,0.4l0,0c0,0 -0.8,-0.2 -1.8,-0.2c-0.9,0 -1.8,0 -1.8,0s-0.5,0 -1.1,0.1c-0.7,0.1 -1.6,0.2 -2.5,0.4c-0.9,0.2 -1.9,0.5 -2.5,0.8c-0.7,0.3 -1.2,0.5 -1.2,0.5s-0.5,0.2 -1,0.5c-0.5,0.3 -1,0.6 -1,0.6c0,-0.8 0.1,-1.7 0.6,-2.7c0.1,-0.2 0.2,-0.3 0.3,-0.5c0.6,-0.9 1.4,-1.6 2.1,-2c0.8,-0.4 1.4,-0.6 1.8,-0.7c0,0 0.2,0 0.3,-0.1c0.2,0 0.3,0 0.3,0s0.7,-0.1 1.3,-0.2c0.7,-0.1 1.3,-0.1 1.3,-0.1s2.6,-0.1 4.8,0.5c1.2,0.3 2.2,0.6 2.9,1c0.7,0.3 1.2,0.6 1.2,0.6c-0.2,0.4 -0.7,0.8 -1.3,1.1zm5.8,-1.7c-1.4,0.1 -2.5,-0.8 -2.6,-0.9l0,0c0,0 -0.7,-0.5 -1.4,-1c-0.7,-0.4 -1.6,-0.9 -1.6,-0.9s-0.4,-0.2 -1,-0.4c-0.6,-0.2 -1.5,-0.6 -2.4,-0.7c-0.9,-0.2 -1.9,-0.4 -2.7,-0.4c-0.8,0 -1.3,-0.1 -1.3,-0.1s-0.6,0 -1.1,0c-0.6,0 -1.2,0.1 -1.2,0.1c0.3,-0.7 0.9,-1.5 1.8,-2.1c0.2,-0.1 0.3,-0.2 0.5,-0.3c1,-0.5 2,-0.8 2.8,-0.8c0.9,0 1.6,0.1 2,0.1c0,0 0.1,0 0.3,0.1c0.1,0 0.3,0.1 0.3,0.1s0.6,0.2 1.3,0.4c0.6,0.2 1.2,0.5 1.2,0.5s2.3,1.1 4.1,2.6c0.9,0.8 1.5,1.6 2.2,2.2c0.7,0.6 1.1,1 1.1,1c-0.8,0.3 -1.7,0.5 -2.3,0.5zm8.6,0c-2.1,0 -3.2,-1.2 -3.4,-1.3l0,0l-2.8,-2.7c0,0 -0.3,-0.3 -0.8,-0.8c-0.5,-0.5 -1.1,-1.1 -1.9,-1.7c-0.7,-0.6 -1.5,-1.2 -2.1,-1.5c-0.7,-0.4 -1.1,-0.6 -1.1,-0.6s-0.5,-0.3 -1,-0.5c-0.5,-0.2 -1.1,-0.5 -1.1,-0.5c0.6,-0.4 1.5,-1 2.6,-1.1c0.2,0 0.4,0 0.6,-0.1c1.1,-0.1 2.1,0.3 2.9,0.5c0.7,0.3 1.1,0.7 1.4,1l0.4,0.4l1.7,1.7l6.9,6.7c-0.5,0.3 -1.4,0.5 -2.3,0.5zm8.8,0c-2.1,0 -3.2,-1.2 -3.4,-1.3l-2.8,-2.7l-5.2,-5.1l-1.4,-1.4c0.6,-0.3 1.3,-0.6 2.2,-0.6c0.2,0 0.3,0 0.5,0c1.7,0.2 3.1,1.2 3.6,1.7l9.1,8.8c-0.8,0.4 -1.6,0.6 -2.6,0.6zm8.8,0c-2.1,0 -3.2,-1.2 -3.3,-1.3l-2.8,-2.7l-5.2,-5.1l-1.4,-1.4c0.6,-0.3 1.3,-0.6 2.2,-0.6c0.2,0 0.3,0 0.5,0c1.7,0.2 3.1,1.2 3.6,1.7l9,8.9c-0.7,0.3 -1.6,0.5 -2.6,0.5zm8.9,0c-2.1,0 -3.2,-1.2 -3.3,-1.3l0,0l-2.8,-2.7l-5.2,-5.1l-1.4,-1.4c0.6,-0.3 1.3,-0.6 2.2,-0.6c0.1,0 0.3,0 0.5,0c1.7,0.2 3.1,1.2 3.6,1.7l9.1,8.8c-0.9,0.4 -1.7,0.6 -2.7,0.6zm9.8,-0.3c-1.3,0.3 -2.4,0 -3.1,-0.3c-0.8,-0.3 -1.1,-0.6 -1.1,-0.7l0,0l-2.9,-2.7l-5.2,-5.1l-1.4,-1.4c0.6,-0.3 1.3,-0.6 2.2,-0.6c0.1,0 0.3,0 0.5,0c1.7,0.2 3.1,1.2 3.6,1.7l0.4,0.4l1.8,1.7c0,0 0.4,0.4 1.1,1c0.6,0.6 1.5,1.4 2.6,2.2c2,1.5 4.7,2.4 4.7,2.4c-0.9,0.6 -2,1.2 -3.2,1.4zm10.5,-4.4c-2.2,1.6 -4.2,1.1 -4.3,1.1l0,0c0,0 -1.1,-0.2 -2.1,-0.5c-1,-0.3 -1.9,-0.7 -1.9,-0.7s-0.5,-0.2 -1.1,-0.5c-0.6,-0.3 -1.4,-0.8 -2.1,-1.3c-0.7,-0.5 -1.4,-1.1 -1.8,-1.5c-0.4,-0.4 -0.7,-0.8 -0.7,-0.8c0,0 -0.2,-0.3 -0.6,-0.7c-0.4,-0.3 -0.7,-0.7 -0.7,-0.7c0.3,-0.1 0.6,-0.3 1,-0.4c0.3,-0.1 0.5,-0.2 0.8,-0.2c0.1,0 0.2,0 0.3,0c0.6,0 1.2,0.2 1.7,0.5c0.5,0.2 1,0.5 1.3,0.7l0.4,0.3c0,0 1.9,1.1 2,1.1c0,0 0.5,0.2 1.4,0.5c0.9,0.3 2,0.6 3.3,0.8c2.5,0.4 5.3,0.1 5.3,0.1c-0.5,0.5 -1.1,1.5 -2.2,2.2zm7.3,-8.5c-1.2,2.4 -3.2,2.9 -3.3,2.9l0,0c0,0 -1.1,0.3 -2.1,0.4c-1.1,0.2 -2.1,0.2 -2.1,0.2s-0.5,0 -1.2,0c-0.7,0 -1.6,-0.1 -2.5,-0.2c-0.9,-0.1 -1.7,-0.3 -2.3,-0.6c-0.6,-0.2 -1,-0.3 -1,-0.3s-0.4,-0.2 -0.8,-0.4c-0.4,-0.2 -0.8,-0.4 -0.8,-0.4c0.2,-0.4 0.6,-0.9 1.1,-1.2c0.1,-0.1 0.2,-0.1 0.3,-0.1c0.6,-0.2 1.2,-0.3 1.8,-0.3c0.6,0 1.1,0 1.5,0c0,0 0.4,0.1 0.5,0.1c0,0 0,0 0,0c0,0 2.3,0.1 2.3,0c0,0 0.6,0 1.4,-0.1c0.9,-0.1 2.1,-0.4 3.3,-0.8c2.4,-0.8 4.8,-2.3 4.8,-2.3c-0.2,0.8 -0.3,1.9 -0.9,3.1zm1.7,-7.9c-0.4,0.7 -0.8,1 -0.9,1l0,0c0,0 -0.2,0.2 -0.5,0.4c-0.3,0.3 -0.7,0.6 -1.2,0.9c-0.9,0.6 -1.7,1.1 -1.7,1.1s-0.4,0.2 -1.1,0.6c-0.6,0.3 -1.5,0.7 -2.3,0.9c-0.8,0.3 -1.7,0.5 -2.3,0.6c-0.6,0.1 -1,0.1 -1,0.1s-0.5,0 -0.9,0c-0.4,0 -0.9,0 -0.9,0c0,-0.5 0.1,-1 0.4,-1.5c0,-0.1 0.1,-0.2 0.2,-0.3c0.4,-0.4 0.9,-0.8 1.4,-1.1c0.5,-0.3 1,-0.5 1.3,-0.6l0.5,-0.2c0.1,0 2.1,-0.9 2.1,-1c0,0 0.5,-0.3 1.2,-0.8c0.8,-0.5 1.7,-1.2 2.6,-2.1c0.9,-0.9 1.7,-1.9 2.2,-2.8c0.5,-0.8 0.9,-1.4 0.9,-1.4c0.2,0.4 0.4,0.9 0.6,1.4c0.1,0.5 0.2,1.1 0.3,1.7c-0.1,1.4 -0.6,2.4 -0.9,3.1z" class="st0"/>
    <path stroke="null" id="svg_63" d="m178.442496,132.690978l0,59.9l-51.1,0l0,-19.8c0.5,0.1 1,0.1 1.5,0.1c7.6,0 13.7,-11.1 13.7,-24.7c0,-13.7 -6.2,-24.7 -13.7,-24.7c-0.5,0 -1,0 -1.5,0.1l0,-9.9l33.3,0c-0.2,0.7 -0.2,1.5 -0.2,2.3c0,8.2 7.7,15.1 18,16.7zm-51.1,85.5l51.1,0l0,-8.5l-51.1,0l0,8.5zm104.5,-94.7c0.5,0 1,0 1.5,0.1l0,-9.9l-33.3,0c0.2,0.7 0.2,1.5 0.2,2.3c0,8.2 -7.7,15.1 -17.9,16.7l0,59.9l51,0l0,-19.8c-0.5,0.1 -1,0.1 -1.5,0.1c-7.6,0 -13.7,-11.1 -13.7,-24.7c0,-13.7 6.1,-24.7 13.7,-24.7zm-49.6,94.7l51.1,0l0,-8.5l-51.1,0l0,8.5zm0,-12.8l51.1,0l0,-8.5l-51.1,0l0,8.5zm-54.9,0l51.1,0l0,-8.5l-51.1,0l0,8.5zm0,36.3l51.1,0l0,-19.2l-51.1,0l0,19.2zm54.9,0l51.1,0l0,-19.2l-51.1,0l0,19.2z" class="st0"/>
   </g>
   <g stroke="null" transform="matrix(3.1954209379386187,0,0,3.015733414538493,-326.27017073340255,-285.86861577981574) " id="svg_55">
    <path stroke="null" id="svg_61" d="m120.842496,213.390978l0,5.7l119,0l0,-5.7l-119,0zm59.5,13c-4.4,0 -7.9,3.4 -7.9,7.7c0,4.2 3.5,7.7 7.9,7.7c4.4,0 7.9,-3.4 7.9,-7.7c0,-4.3 -3.5,-7.7 -7.9,-7.7zm35.7,-51.9l0,-15.8c0,-9.5 -4,-18.1 -10.5,-24.4c-4.3,-4.2 -9.7,-7.3 -15.7,-8.9l0,-7.6c0,-2.3 -1.9,-4.1 -4.2,-4.1l-10.6,0c-2.3,0 -4.2,1.8 -4.2,4.1l0,7.6c-15.1,4 -26.2,17.4 -26.2,33.2l0,15.8c0,19 -14.4,34.5 -14.4,34.5l100.2,0c0,0.1 -14.4,-15.5 -14.4,-34.4zm-35.7,-50.3c-1.8,0 -3.5,0.1 -5.3,0.4l0,-5.6c0,-0.7 0.6,-1.3 1.3,-1.3l8,0c0.7,0 1.3,0.6 1.3,1.3l0,5.6c-1.7,-0.3 -3.5,-0.4 -5.3,-0.4z" class="st0"/>
    <path stroke="null" id="svg_60" d="m236.842496,175.290978c9.6,-10.4 14.1,-41.4 -12.9,-58.4c-27.1,-16.9 -32.6,38.3 -32.6,38.3l0,0c-2,-0.7 -4.1,-1.1 -6.2,-1.1c-1.2,0 -2.4,0.1 -3.5,0.3c-2.1,-3.7 -14.9,-25.4 -26.3,-27c-13.9,-1.8 -41.2,12.6 -38.9,44.9c2.4,32.4 49.9,4.3 49.9,4.3l0,0c0.5,3.3 1.8,6.3 3.7,8.9c-3.2,5.2 -13.9,24.5 -10.2,34.8c4.8,13.5 29.9,31.5 56.9,14.4c27,-17.1 -18.7,-46.8 -18.7,-46.8c1.9,-1.7 3.4,-3.8 4.4,-6.2c6.7,0.5 27.2,1.4 34.4,-6.4zm-112.9,-0.1l-2.3,0.1c0,-0.3 -2,-34.9 26.4,-42.9l0.6,2.2c-26.6,7.5 -24.7,40.3 -24.7,40.6zm61.2,8.8c-5.6,0 -10.2,-4.7 -10.2,-10.4c0,-5.8 4.6,-10.4 10.2,-10.4c5.6,0 10.2,4.7 10.2,10.4c0,5.8 -4.6,10.4 -10.2,10.4z" class="st0"/>
    <path stroke="null" id="svg_59" d="m180.342496,169.290978c-4.6,0 -8.4,3.8 -8.4,8.4c0,4.7 3.8,8.4 8.4,8.4c4.6,0 8.4,-3.7 8.4,-8.4c0,-4.6 -3.8,-8.4 -8.4,-8.4zm13.2,17.3c1.7,-2.6 2.7,-5.6 2.7,-8.9c0,-8.8 -7.1,-15.9 -15.9,-15.9c-3.3,0 -6.4,1 -8.9,2.7l-18.4,-18.4l-4.2,4.2l18.4,18.4c-1.7,2.5 -2.8,5.6 -2.8,8.9c0,8.8 7.1,15.9 15.9,15.9c3.3,0 6.4,-1 8.9,-2.7l17.7,17.7l4.2,-4.2l-17.6,-17.7zm-13.2,3c-6.6,0 -11.9,-5.4 -11.9,-11.9c0,-6.6 5.4,-11.9 11.9,-11.9c6.6,0 11.9,5.4 11.9,11.9c0,6.5 -5.3,11.9 -11.9,11.9zm48.3,30.4c-0.1,-0.1 -0.1,-0.1 -0.2,-0.2c9.9,-11.2 15.9,-26 15.9,-42.1c0,-16.1 -6,-30.8 -15.8,-42.1c0,0 0.1,0 0.1,-0.1l6.1,-6.1c0.8,-0.9 1.2,-1.9 1.2,-3.1c0,-1.1 -0.4,-2.2 -1.2,-3c-1.7,-1.7 -4.4,-1.7 -6.1,0l-6.1,6.1c0,0 -0.1,0 -0.1,0.1c-11.2,-9.8 -26,-15.8 -42.1,-15.8s-30.9,6 -42.2,15.9c0,0 0,0 -0.1,-0.1l-6.1,-6.1c-0.8,-0.8 -1.9,-1.2 -3,-1.2c-1.1,0 -2.2,0.4 -3,1.2c-1.7,1.6 -1.7,4.4 0,6.1l6.1,6.1c0,0 0.1,0.1 0.1,0.1c-9.8,11.2 -15.8,25.9 -15.8,42c0,16.1 6,30.9 15.9,42.2c-0.1,0 -0.1,0.1 -0.2,0.2l-6.1,6.1c-1.7,1.7 -1.7,4.4 0,6.1c0.8,0.8 1.9,1.2 3,1.2c1.1,0 2.2,-0.4 3,-1.2l6.1,-6.1c0.1,-0.1 0.1,-0.1 0.2,-0.2c11.3,9.7 26,15.7 42.1,15.7c16.1,0 30.8,-6 42.1,-15.8c0,0.1 0.1,0.1 0.2,0.2l6.1,6.1c1.7,1.7 4.4,1.7 6.1,0c0.8,-0.8 1.2,-1.9 1.2,-3.1c0,-1.1 -0.4,-2.2 -1.2,-3l-6.2,-6.1zm-45.3,-98.2c28.5,1.5 51.4,24.4 52.9,52.9l-5.7,0c-1.5,-25.4 -21.8,-45.9 -47.2,-47.5l0,-5.4zm-6,0l0,5.3c-25.7,1.3 -46.4,21.9 -47.9,47.6l-5,0c1.5,-28.5 24.4,-51.4 52.9,-52.9zm0,111.8c-28.5,-1.5 -51.4,-24.4 -52.9,-52.9l5,0c1.5,25.7 22.2,46.3 47.9,47.6l0,5.3zm0,-17.1l0,8.6c-24,-1.3 -43.2,-20.5 -44.7,-44.4l9,0l0,-6l-9,0c1.5,-23.9 20.7,-43.1 44.7,-44.4l0,8.6l6,0l0,-8.6c23.6,1.6 42.5,20.7 44,44.3l-8.2,0l0,6l8.2,0c-1.5,23.7 -20.4,42.7 -44,44.3l0,-8.6l-6,0l0,0.2zm6,17.1l0,-5.4c25.4,-1.7 45.7,-22.1 47.2,-47.5l5.7,0c-1.5,28.5 -24.4,51.4 -52.9,52.9z" class="st0"/>
    <g stroke="null" id="svg_57" class="st1">
     <path stroke="null" id="svg_58" d="m220.742496,177.690978c0,20.1 -16.7,36.3 -37.4,36.3c-20.7,0 -37.4,-16.3 -37.4,-36.3c0,-0.7 0,-1.4 0.1,-2c0.5,4.5 4.5,8.1 9.3,8.1c5.2,0 9.4,-4.1 9.4,-9.1c0,5 4.2,9.1 9.4,9.1c5,-0.1 9.2,-4.1 9.2,-9.1c0,5 4.2,9.1 9.4,9.1c5.2,0 9.4,-4.1 9.4,-9.1c0,5 4.2,9.1 9.4,9.1c4.8,0 8.8,-3.5 9.3,-8.1c-0.1,0.6 -0.1,1.3 -0.1,2z" class="st2"/>
     <path stroke="null" id="svg_69" d="m231.142496,180.890978c-2.1,0 -3.8,-1.7 -3.8,-3.8c0,-2.1 1.7,-3.8 3.8,-3.8c2.1,0 3.8,1.7 3.8,3.8c0,2.1 -1.7,3.8 -3.8,3.8zm-91.9,-3.7c0,-2.1 -1.7,-3.8 -3.8,-3.8s-3.8,1.7 -3.8,3.8c0,2.1 1.7,3.8 3.8,3.8s3.8,-1.8 3.8,-3.8zm47.7,-49.1c0.7,2.8 -1.8,5.3 -4.6,4.6c-1.3,-0.3 -2.4,-1.4 -2.7,-2.7c-0.7,-2.8 1.8,-5.3 4.6,-4.6c1.3,0.3 2.4,1.4 2.7,2.7zm-3.6,93.4c-2.1,0 -3.8,1.7 -3.8,3.8c0,2.1 1.7,3.8 3.8,3.8c2.1,0 3.8,-1.7 3.8,-3.8c0,-2.1 -1.7,-3.8 -3.8,-3.8zm31.1,-7.7c-1.5,-1.5 -1.5,-3.9 0,-5.3c1.5,-1.5 3.9,-1.5 5.3,0c1.5,1.5 1.5,3.9 0,5.3c-1.4,1.5 -3.8,1.5 -5.3,0zm-62.3,-68c1.5,-1.5 1.5,-3.9 0,-5.3c-1.5,-1.5 -3.9,-1.5 -5.3,0c-1.5,1.5 -1.5,3.9 0,5.3s3.9,1.5 5.3,0zm67.7,0c-1.5,1.5 -3.9,1.5 -5.3,0s-1.5,-3.9 0,-5.3c1.5,-1.5 3.9,-1.5 5.3,0c1.4,1.5 1.4,3.9 0,5.3zm-67.7,62.7c-1.5,-1.5 -3.9,-1.5 -5.3,0c-1.5,1.5 -1.5,3.9 0,5.3c1.5,1.5 3.9,1.5 5.3,0c1.5,-1.4 1.5,-3.8 0,-5.3zm31.2,-92.1c-19,0 -36,8.8 -47.2,22.5c-0.9,-0.9 -2,-1.4 -3.4,-1.4l-11.6,0c-2.6,0 -4.8,2.2 -4.8,4.8l0,1.9c0,2.6 2.2,4.8 4.8,4.8l8.3,0c-4.5,8.5 -7.1,18.3 -7.1,28.7c0,10.4 2.6,20.2 7.1,28.8l-8.3,0c-2.6,0 -4.8,2.2 -4.8,4.8l0,1.9c0,2.6 2.2,4.8 4.8,4.8l11.7,0c1.3,0 2.5,-0.5 3.4,-1.4c11.1,13.7 28.1,22.4 47.1,22.4c33.6,0 61,-27.5 61,-61.3c0,-33.8 -27.4,-61.3 -61,-61.3zm0,117.1c-30.6,0 -55.4,-25 -55.4,-55.8c0,-30.7 24.8,-55.8 55.4,-55.8c30.6,0 55.4,25 55.4,55.8c0,30.7 -24.8,55.8 -55.4,55.8zm0,-96.2c-22.2,0 -40.2,18.1 -40.2,40.4c0,22.3 18,40.4 40.2,40.4c22.2,0 40.2,-18.1 40.2,-40.4c0,-22.3 -18,-40.4 -40.2,-40.4zm-34.6,40.4c0,-19.2 15.5,-34.8 34.6,-34.8c19.1,0 34.6,15.6 34.6,34.8c0,0.2 0,0.3 0,0.5c-1.3,2.3 -3.7,3.9 -6.6,3.9c-4.1,0 -7.5,-3.4 -7.5,-7.6l-3.7,0c0,4.2 -3.4,7.6 -7.5,7.6c-4.1,0 -7.5,-3.4 -7.5,-7.6l-3.7,0c0,4.2 -3.4,7.6 -7.5,7.6c-4.1,0 -7.5,-3.4 -7.5,-7.6l-3.7,0c0,4.2 -3.4,7.6 -7.5,7.6c-2.8,0 -5.3,-1.6 -6.6,-3.9c0.1,-0.2 0.1,-0.3 0.1,-0.5zm34.6,34.8c-16.9,0 -31.1,-12.3 -34,-28.5c1.7,1.1 3.8,1.7 6,1.7c3.9,0 7.4,-2 9.4,-5.1c2,3 5.5,5.1 9.4,5.1c3.9,0 7.4,-2 9.4,-5.1c2,3 5.5,5.1 9.4,5.1c3.9,0 7.4,-2 9.4,-5.1c2,3 5.5,5.1 9.4,5.1c2.2,0 4.3,-0.6 6,-1.7c-3.3,16.2 -17.5,28.5 -34.4,28.5z" class="st3"/>
    </g>
    <path stroke="null" id="svg_56" d="m180.342496,113.690978c-35.3,0 -64,28.7 -64,64c0,35.3 28.7,64 64,64c35.3,0 64,-28.7 64,-64c0,-35.3 -28.7,-64 -64,-64zm3.2,119.4l0,-4.9l-6.4,0l0,4.9c-28.1,-1.6 -50.6,-24.2 -52.2,-52.3l4.8,0l0,-6.4l-4.8,0c1.6,-28 24.1,-50.5 52.2,-52.1l0,4.7l6.4,0l0,-4.7c28,1.6 50.5,24.1 52.2,52.1l-4.8,0l0,6.4l4.8,0c-1.6,28.1 -24.1,50.7 -52.2,52.3zm40.3,-36.6c1.1,1.1 1.8,2.7 1.8,4.4c0,3.5 -2.9,6.4 -6.4,6.4c-0.6,0 -1.2,-0.1 -1.7,-0.2c-8.7,11 -22.1,18 -37.2,18c-26.2,0 -47.4,-21.3 -47.4,-47.4c0,-13.8 5.9,-26.6 16.1,-35.7l2.7,3.3c-9.3,8.3 -14.6,19.9 -14.6,32.4c0,23.8 19.4,43.2 43.2,43.2c13.6,0 25.7,-6.3 33.7,-16.2c-0.7,-1 -1.2,-2.3 -1.2,-3.7c0,-3.5 2.9,-6.4 6.4,-6.4c0.3,0 0.5,0 0.8,0.1c2.2,-5.2 3.5,-10.9 3.5,-16.9l4.3,0c-0.1,6.6 -1.5,13 -4,18.7zm-38.2,-18.8c0,2.9 -2.4,5.3 -5.3,5.3c-2.9,0 -5.3,-2.4 -5.3,-5.3c0,-0.9 0.2,-1.7 0.6,-2.5l-4.8,-6l-2.7,-3.4l-6.6,-8.2l-2.7,-3.4l-7.1,-8.9l-2.7,-3.3l-0.3,-0.3l3.3,-2.7l26.8,33.5c0.4,-0.1 0.9,-0.2 1.4,-0.2c3,0.1 5.4,2.5 5.4,5.4zm14.2,25.1c-5.6,4.4 -12.4,6.7 -19.5,6.7c-12.7,0 -23.7,-7.4 -28.8,-18.2c-3.5,-0.1 -6.2,-2.9 -6.2,-6.4c0,-2.4 1.3,-4.4 3.2,-5.5c0,-0.6 0,-1.1 0,-1.7c0,-9 3.7,-17.4 10.3,-23.4l2.7,3.4c-5.6,5.2 -8.7,12.4 -8.7,20.1c0,0.3 0,0.6 0,0.9c3,0.5 5.4,3.1 5.4,6.3c0,2 -1,3.9 -2.5,5.1c4.5,9 13.9,15.3 24.7,15.3c6.2,0 12,-2 16.9,-5.8l2.5,3.2zm-10.4,-10.7c-2.7,1.7 -5.8,2.6 -9.1,2.6c-9.4,0 -17.1,-7.7 -17.1,-17.1c0,-4.5 1.7,-8.7 4.8,-11.9l2.7,3.4c-2.1,2.3 -3.2,5.3 -3.2,8.5c0,7.1 5.7,12.8 12.8,12.8c2.4,0 4.8,-0.7 6.8,-2l2.3,3.7z" class="st0"/>
   </g>
   <g stroke="null" transform="matrix(3.1954209379386187,0,0,3.015733414538493,-326.27017073340255,-285.86861577981574) " id="svg_47">
    <path stroke="null" id="svg_54" d="m193.842496,180.090978l-29.2,0l-0.7,9.8l30.6,0l-0.7,-9.8zm1.8,25.6l-32.9,0l-0.7,9.8l34.3,0l-0.7,-9.8zm-0.9,-12.8l-31,0l-0.7,9.7l32.4,0l-0.7,-9.7zm-1.9,-25.6l-27.3,0l-0.7,9.7l28.7,0l-0.7,-9.7zm-13.6,-53.6l-11,17.5l22.8,0l-11.8,-17.5zm-15.4,35.4l-21.8,6.6l0.9,2.9l21.8,-6.7l-0.9,-2.8zm-23.2,-5.6l0,3.1l23.7,0l0,-3.1l-23.7,0zm2.3,-12.5l-0.9,2.9l21.8,6.7l0.9,-2.9l-21.8,-6.7zm53.9,18.1l-0.9,2.9l21.8,6.7l0.9,-2.9l-21.8,-6.7zm-0.5,-5.6l0,3.1l23.7,0l0,-3.1l-23.7,0zm21.4,-12.5l-21.8,6.7l0.9,2.9l21.8,-6.7l-0.9,-2.9zm-26,20.2l-0.8,0l0,-11.4l1.5,0l0,-5.4l-25.8,0l0,5.4l1.1,0l0,11.4l-1.1,0l-0.9,13l26.9,0l-0.9,-13zm-17.9,0l-3,0l0,-11.4l3,0l0,11.4zm8,0l-4.9,0l0,-11.4l4.9,0l0,11.4zm6,0l-3,0l0,-11.4l3,0l0,11.4zm18.9,78.3l0,12.2l-55,0l0,-12.2l9.3,0l0.8,-11l34.7,0l0.8,11l9.4,0z" class="st0"/>
    <path stroke="null" id="svg_53" d="m182.642496,161.390978l0,0c-0.8,0.4 -1.1,1.3 -0.7,2.1l1.1,1.8l-38.1,21l11.1,18.9l38.1,-21l1.1,1.8c0.4,0.7 1.4,1 2.1,0.6l0.1,0c0.7,-0.4 1,-1.3 0.6,-2l-13.4,-22.6c-0.4,-0.7 -1.3,-1 -2,-0.6zm47,-23.5l-1.5,-2.5l-43.2,23.9l15.6,26.5l43.3,-23.8l-1.4,-2.5c3.4,-2.1 2.1,-8.4 -1,-13.7c-3.2,-5.3 -8.2,-9.6 -11.8,-7.9zm-112.5,66l0,0c-0.8,0.4 -1,1.4 -0.6,2.1l7.8,13.2c0.4,0.7 1.4,1 2.1,0.6l0,0c0.8,-0.4 1,-1.3 0.6,-2.1l-7.7,-13.3c-0.5,-0.7 -1.4,-1 -2.2,-0.5zm26.1,-17.4l11.8,20.1c0.4,0.7 0.2,1.5 -0.5,1.9l-0.2,0.1c-0.7,0.4 -1.6,0.1 -2,-0.5l-2,-3.4l-22,12l-7.8,-13.2l21.9,-12.1l-2,-3.4c-0.4,-0.7 -0.2,-1.5 0.5,-1.9l0.2,-0.1c0.8,-0.4 1.7,-0.2 2.1,0.5z" class="st0"/>
    <path stroke="null" id="svg_52" d="m231.842496,167.490978l-20.5,13l3.6,5.3l9.1,-5.8c-1.6,21.7 -18.2,39.1 -39,41.3l0,-67l11.9,0l0,-6.3l-11.9,0l0,-12.4c4,-1.7 6.9,-5.8 6.9,-10.5c0,-6.3 -5.1,-11.4 -11.3,-11.4c-6.2,0 -11.3,5.1 -11.3,11.4c0,4.7 2.8,8.8 6.9,10.5l0,12.4l-11.9,0l0,6.3l11.9,0l0,67c-21,-2.2 -37.7,-19.9 -39,-41.9l8.6,6.6l4.1,-5l-19.3,-14.7l-14.3,19.8l5.4,3.6l6.8,-9.4c1.8,26.3 22.2,47.3 47.7,49.5l0,5.6l4.1,6.3l4.7,-6.3l0,-5.6c25.1,-2.1 45.2,-22.5 47.7,-48l5.9,9.9l5.7,-3.2l-12.5,-21zm-55.9,-42.4c0,-2.8 2.1,-5 4.7,-5c2.6,0 4.7,2.2 4.7,5c0,2.8 -2.1,5 -4.7,5c-2.6,0 -4.7,-2.2 -4.7,-5z" class="st0"/>
    <g stroke="null" id="svg_49" class="st1">
     <path stroke="null" id="svg_51" d="m223.342496,220.690978c-11,11 -26.2,17.8 -43,17.8s-32,-6.8 -43,-17.8l21.5,-21.5c5.5,5.5 13.1,8.9 21.5,8.9s16,-3.4 21.5,-8.9l21.5,21.5zm-43,-103.7c-16.8,0 -32,6.8 -43,17.8l21.5,21.5c5.5,-5.6 13.1,-9 21.5,-9s16,3.4 21.5,8.9l21.5,-21.5c-11,-10.9 -26.2,-17.7 -43,-17.7z" class="st2"/>
     <path stroke="null" id="svg_50" d="m221.042496,222.990978l-21.5,-21.5l4.6,-4.6l21.5,21.5l-4.6,4.6zm-81.4,0l-4.6,-4.6l21.5,-21.5l4.6,4.6l-21.5,21.5zm64.5,-64.5l-4.6,-4.6l21.5,-21.5l4.6,4.6l-21.5,21.5zm-47.6,0l-21.5,-21.5l4.6,-4.6l21.5,21.5l-4.6,4.6zm23.8,83.2c-35.3,0 -64,-28.7 -64,-64s28.7,-64 64,-64s64,28.7 64,64s-28.7,64 -64,64zm0,-121.5c-31.7,0 -57.5,25.8 -57.5,57.5s25.8,57.5 57.5,57.5s57.5,-25.8 57.5,-57.5s-25.8,-57.5 -57.5,-57.5zm0,91.1c-18.5,0 -33.6,-15.1 -33.6,-33.6s15.1,-33.6 33.6,-33.6s33.6,15.1 33.6,33.6s-15.1,33.6 -33.6,33.6zm0,-60.7c-15,0 -27.1,12.1 -27.1,27.1s12.1,27.1 27.1,27.1s27.1,-12.1 27.1,-27.1s-12.1,-27.1 -27.1,-27.1z" class="st3"/>
    </g>
    <path stroke="null" id="svg_48" d="m241.342496,174.490978l-18.8,0c-0.7,-9.3 -4.4,-17.8 -10.1,-24.4l13.3,-13.3c1.2,-1.2 1.2,-3 0,-4.2l-0.3,-0.3c-1.2,-1.2 -3,-1.2 -4.2,0l-13.3,13.3c-6.7,-5.7 -15.1,-9.4 -24.4,-10.1l0,-18.8c0,-1.6 -1.3,-3 -3,-3l-0.4,0c-1.6,0 -3,1.3 -3,3l0,18.8c-9.3,0.7 -17.8,4.4 -24.4,10.1l-13.3,-13.3c-1.2,-1.2 -3,-1.2 -4.2,0l-0.3,0.3c-1.2,1.2 -1.2,3.1 0,4.2l13.3,13.3c-5.8,6.7 -9.5,15.1 -10.1,24.4l-18.8,0c-1.6,0 -3,1.3 -3,3l0,0.4c0,1.6 1.3,3 3,3l18.8,0c0.7,9.3 4.4,17.8 10.1,24.4l-13.3,13.3c-1.2,1.2 -1.2,3.1 0,4.2l0.3,0.3c1.2,1.2 3.1,1.2 4.2,0l13.3,-13.3c6.7,5.8 15.1,9.5 24.4,10.1l0,18.8c0,1.6 1.3,3 3,3l0.4,0c1.6,0 3,-1.3 3,-3l0,-18.8c9.3,-0.7 17.8,-4.4 24.4,-10.1l13.3,13.3c1.2,1.2 3.1,1.2 4.2,0l0.3,-0.3c1.2,-1.2 1.2,-3 0,-4.2l-13.3,-13.3c5.7,-6.7 9.4,-15.1 10.1,-24.4l18.8,0c1.6,0 3,-1.3 3,-3l0,-0.4c0,-1.7 -1.3,-3 -3,-3zm-87.5,-18.8l14.3,14.3c-0.9,1.3 -1.5,2.9 -1.9,4.5l-20.1,0c0.6,-7.1 3.4,-13.6 7.7,-18.8zm-7.7,25.2l20.2,0c0.4,1.6 1,3.1 1.9,4.5l-14.4,14.2c-4.3,-5.1 -7.1,-11.6 -7.7,-18.7zm31,31c-7.1,-0.6 -13.6,-3.5 -18.8,-7.8l14.3,-14.3c1.3,0.9 2.9,1.5 4.5,1.9l0,20.2zm0,-48.2c-1.6,0.4 -3.1,1 -4.5,1.9l-14.3,-14.4c5.2,-4.3 11.7,-7.1 18.8,-7.8l0,20.3zm6.4,-20.2c7.1,0.6 13.6,3.5 18.7,7.8l-14.2,14.2c-1.3,-0.8 -2.9,-1.5 -4.5,-1.9l0,-20.1zm0,68.4l0,-20.2c1.6,-0.4 3.1,-1 4.5,-1.9l14.3,14.3c-5.2,4.4 -11.7,7.2 -18.8,7.8zm23.3,-12.3l-14.3,-14.2c0.9,-1.3 1.5,-2.9 1.9,-4.5l20.2,0c-0.7,7.1 -3.5,13.6 -7.8,18.7zm-12.5,-25.1c-0.4,-1.6 -1,-3.1 -1.9,-4.5l14.4,-14.3c4.3,5.2 7.1,11.7 7.8,18.8l-20.3,0z" class="st4"/>
   </g>
  </g>
 </g>
</svg>