<svg width="500" height="500" xmlns="http://www.w3.org/2000/svg">
 <!-- Created with Method Draw - http://github.com/duopixel/Method-Draw/ -->

 <g>
  <title>background</title>
  <rect fill="none" id="canvas_background" height="502" width="502" y="-1" x="-1"/>
  <g display="none" overflow="visible" y="0" x="0" height="100%" width="100%" id="canvasGrid">
   <rect fill="url(#gridpattern)" stroke-width="0" y="0" x="0" height="100%" width="100%"/>
  </g>
 </g>
 <g>
  <title>Layer 1</title>
  <ellipse stroke="#1a447b" ry="242.000006" rx="240.499999" id="svg_1" cy="249.999994" cx="249.999999" stroke-width="15" fill="#fff"/>
  <defs>
   <style>.cls-1{fill:#1a447b;}</style>
  </defs>
  <g id="svg_16">
   <path id="svg_6" d="m351.725276,138.102223l-88.161898,0a6.781684,6.781684 0 0 1 0,-13.563369l88.161898,0a6.781684,6.781684 0 0 1 0,13.563369z" class="cls-1"/>
   <path id="svg_7" d="m439.887173,138.102223l-88.161898,0a6.781684,6.781684 0 0 1 0,-13.563369l88.161898,0a6.781684,6.781684 0 0 1 0,13.563369z" class="cls-1"/>
   <path id="svg_8" d="m148.274742,158.447277l-88.161898,0a6.781684,6.781684 0 0 1 0,-13.563369l88.161898,0a6.781684,6.781684 0 0 1 0,13.563369z" class="cls-1"/>
   <path id="svg_9" d="m236.43664,158.447277l-88.161898,0a6.781684,6.781684 0 0 1 0,-13.563369l88.161898,0a6.781684,6.781684 0 0 1 0,13.563369z" class="cls-1"/>
   <path id="svg_10" d="m134.711373,341.552757a20.345053,20.345053 0 1 0 20.345053,20.345053a20.345053,20.345053 0 0 0 -20.345053,-20.345053zm0,27.126738a6.781684,6.781684 0 1 1 6.781684,-6.781684a6.781684,6.781684 0 0 1 -6.781684,6.781684z" class="cls-1"/>
   <path id="svg_11" d="m344.943591,341.552757a20.345053,20.345053 0 1 0 20.345053,20.345053a20.345053,20.345053 0 0 0 -20.345053,-20.345053zm0,27.126738a6.781684,6.781684 0 1 1 6.781684,-6.781684a6.781684,6.781684 0 0 1 -6.781684,6.781684z" class="cls-1"/>
   <path id="svg_12" d="m155.056427,172.010646l0,-27.126738a6.781684,6.781684 0 0 0 -13.563369,0l0,27.126738l13.563369,0z" class="cls-1"/>
   <polygon id="svg_13" points="216.0915756225586,212.7007598876953 114.36631774902344,212.7007598876953 114.36631774902344,172.01065063476562 188.96485137939453,172.01065063476562 216.0915756225586,212.7007598876953 " class="cls-1"/>
   <path id="svg_14" d="m358.50696,151.665592l0,-27.126738a6.781684,6.781684 0 0 0 -13.563369,0l0,27.126738l13.563369,0z" class="cls-1"/>
   <path id="svg_15" d="m405.978751,151.665592l-67.816844,0l-27.126738,61.03516l-196.668849,0l-27.126738,54.253476l-6.274414,3.137885a37.721763,37.721763 0 0 0 -20.852323,33.73888l0,0a37.721763,37.721763 0 0 0 37.721763,37.721763l9.922961,0a33.563913,33.563913 0 0 1 53.90761,0l156.324608,0a33.504912,33.504912 0 0 1 52.928334,-1.186117a67.79989,67.79989 0 0 0 55.405684,-66.630728l0,-61.03516l-20.345053,-61.03516zm-47.471791,149.197058a13.563369,13.563369 0 1 1 -13.563369,13.563369a13.563369,13.563369 0 0 1 -6.781684,-74.598529l20.345053,61.03516zm-67.816844,0a13.563369,13.563369 0 1 1 -13.563369,13.563369a13.563369,13.563369 0 0 1 -6.781684,-74.598529l20.345053,61.03516zm-67.816844,0a13.563369,13.563369 0 1 1 -13.563369,13.563369a13.563369,13.563369 0 0 1 -6.781684,-74.598529l20.345053,61.03516zm-101.725267,27.126738l13.563369,-27.126738l40.690107,0l0,27.126738l-54.253476,0zm264.485693,40.690107l-223.795587,0a6.781684,6.781684 0 0 1 0,-13.563369l203.450533,0a6.781684,6.781684 0 0 1 0,13.563369l20.345053,0zm33.908422,-81.380213l-61.03516,0a13.563369,13.563369 0 0 1 0,-27.126738l40.690107,0l20.345053,27.126738z" class="cls-1"/>
  </g>
 </g>
</svg>
