<svg width="1800" height="1820.0000000000002" xmlns="http://www.w3.org/2000/svg">

 <g>
  <title>background</title>
  <rect fill="none" id="canvas_background" height="1822" width="1802" y="-1" x="-1"/>
 </g>
 <g>
  <title>Layer 1</title>
  <style transform="matrix(0.5748715629895038,0,0,0.5748715629895038,0,0) " type="text/css">.st0{display:none;fill:#1a447b;}
	.st1{display:none;}
	.st2{display:inline;fill:#1a447b;}
	.st3{display:inline;fill:#1a447b;}
	.st4{fill:#1a447b;}</style>
  <defs>
   <style>.cls-1{fill:#1a447b;}</style>
  </defs>
  <g fill="#1a447b" stroke="#1a447b" id="svg_176">
   <g fill="#1a447b" stroke="#1a447b" transform="matrix(-3.5120818216583083,0,0,3.554573359172898,84798.94688707194,-84609.91453053191) " id="svg_175">
    <title stroke="#fff" stroke-width="" transform="translate(3.5597548484802246,0) translate(-1.7798774242401123,-1.7586007118225098) translate(-3.521178960800171,0) translate(-3.521178960800171,-36.49297332763672) translate(1.7605894804000854,-98.9197769165039) translate(23641.408203125,0) translate(0,23950.587890625) ">Layer 1</title>
    <ellipse stroke="#1a447b" fill="#fff" stroke-width="15" stroke-opacity="null" cx="23887.906316" cy="24063.416532" id="svg_171" rx="245.500015" ry="244.999997"/>
    <path stroke="#1a447b" stroke-width="" fill="#1a447b" d="m24012.238475,24027.166542l-74.010527,0l-68.059379,-109.932897a10.370151,9.570868 0 0 0 -9.001193,-4.81711l-42.415693,0c-6.883646,0 -11.850491,6.078164 -9.959593,12.186212l31.750251,102.563795l-66.608827,0l-27.97493,-34.425002c-1.955655,-2.408555 -5.031602,-3.825 -8.288868,-3.825l-25.896237,0c-6.741181,0 -11.688599,5.845078 -10.050253,11.881407l20.404862,64.618598l-20.404862,64.618598c-1.638347,6.036328 3.309072,11.881407 10.050253,11.881407l25.896237,0c3.263742,0 6.333213,-1.416445 8.288868,-3.825l27.97493,-34.425002l66.608827,0l-31.750251,102.557819c-1.890898,6.108047 3.075947,12.192188 9.959593,12.192188l42.415693,0c3.717039,0 7.149149,-1.840781 8.994717,-4.81711l68.065854,-109.932897l74.010527,0c22.891523,0 62.166511,-17.122853 62.166511,-38.250002s-39.274989,-38.250002 -62.166511,-38.250002l0.000001,-0.000002z" id="svg_170"/>
    <path stroke="#1a447b" fill="#1a447b" stroke-width="" stroke-opacity="null" d="m23657.906312,23725.41654l21,58" id="svg_169"/>
   </g>
  </g>
 </g>
</svg>
