<svg width="500" height="500" xmlns="http://www.w3.org/2000/svg">
 <!-- Created with Method Draw - http://github.com/duopixel/Method-Draw/ -->

 <g>
  <title>background</title>
  <rect fill="none" id="canvas_background" height="502" width="502" y="-1" x="-1"/>
  <g display="none" overflow="visible" y="0" x="0" height="100%" width="100%" id="canvasGrid">
   <rect fill="url(#gridpattern)" stroke-width="0" y="0" x="0" height="100%" width="100%"/>
  </g>
 </g>
 <g>
  <title>Layer 1</title>
  <ellipse stroke="#000" ry="239.000001" rx="240.500009" id="svg_1" cy="249.999995" cx="250.000005" stroke-width="15" fill="#fff"/>
  <style transform="matrix(1.695421110424732,0,0,1.695421110424732,0,0) " type="text/css">.st0{display:none;fill:#262626;}
	.st1{display:none;}
	.st2{display:inline;fill:#4C4C4C;}
	.st3{display:inline;fill:#262626;}
	.st4{fill:#262626;}</style>
  <g stroke="null" id="svg_85">
   <path stroke="null" id="svg_83" d="m417.564225,308.337766l-99.263847,0l28.091601,41.262888l0.329587,0c-3.555493,4.068092 -7.480192,7.936265 -11.785053,11.582465c-16.806408,14.184251 -37.719588,23.633067 -60.478792,27.568117l0,-121.676358l71.936787,0l0,-41.284943l-71.936787,0l0,-50.156059c24.429898,-8.181717 41.709192,-28.345736 41.709192,-51.911926c0,-30.835824 -29.61984,-55.847688 -66.166907,-55.847688c-36.546224,0 -66.152577,25.011153 -66.152577,55.847688c0,23.56619 17.264964,43.708154 41.696548,51.911926l0,50.156059l-71.935101,0l0,41.284943l71.935101,0l0,121.676358c-22.757518,-3.93505 -43.673227,-13.384577 -60.477106,-27.568828c-4.306547,-3.6462 -8.244732,-7.515085 -11.801069,-11.581754l0.342231,0l28.091601,-41.262888l-99.263847,0c9.877495,63.094554 68.644288,113.205791 143.106504,122.320935l0,0.28885l2.647654,0c7.138804,0.77833 14.420906,1.178167 21.810061,1.178167c7.401799,0 14.671257,-0.400548 21.810061,-1.178167l2.647654,0l0,-0.28885c74.476545,-9.115144 133.229009,-59.226381 143.106504,-122.320935zm-200.647672,-184.615816c0,-15.385185 14.829729,-27.923844 33.083453,-27.923844s33.084296,12.538659 33.084296,27.923844c0,15.406529 -14.830572,27.945899 -33.084296,27.945899s-33.083453,-12.538659 -33.083453,-27.945899z"/>
  </g>
 </g>
</svg>
