<svg width="500" height="500" xmlns="http://www.w3.org/2000/svg">
 <!-- Created with Method Draw - http://github.com/duopixel/Method-Draw/ -->

 <g>
  <title>background</title>
  <rect fill="none" id="canvas_background" height="502" width="502" y="-1" x="-1"/>
  <g display="none" overflow="visible" y="0" x="0" height="100%" width="100%" id="canvasGrid">
   <rect fill="url(#gridpattern)" stroke-width="0" y="0" x="0" height="100%" width="100%"/>
  </g>
 </g>
 <g>
  <title>Layer 1</title>
  <ellipse stroke="#000" ry="239.000001" rx="240.500009" id="svg_1" cy="249.999995" cx="250.000005" stroke-width="0" fill="#fff"/>
  <style transform="matrix(1.695421110424732,0,0,1.695421110424732,0,0) " type="text/css">.st0{display:none;fill:#262626;}
	.st1{display:none;}
	.st2{display:inline;fill:#4C4C4C;}
	.st3{display:inline;fill:#262626;}
	.st4{fill:#262626;}</style>
  <g stroke="null" id="svg_78">
   <path stroke="null" id="svg_75" d="m345.774288,292.985199l28.654263,-20.469144l-62.379982,-69.578715a54.496352,48.631248 0 0 0 -35.429354,-17.682557a45.407663,40.520718 0 0 1 -72.287642,-0.756048l-46.082768,0a18.350238,16.375315 0 0 1 0,-32.750631l0,-32.750631a55.050713,49.125946 0 0 0 0,98.251893l21.409039,0l11.7959,63.161557l-33.204939,133.342229l36.700475,0l28.544529,-114.627208l34.662131,0l28.544529,114.627208l36.700475,0l-33.204939,-133.341246l7.63847,-40.899315l47.939812,53.47261z"/>
   <path stroke="null" id="svg_76" d="m305.050707,157.888846l-16.05866,0l-16.054256,-14.328401l-64.225832,0l-16.054256,14.328401l-16.05866,0l0,-14.328401a64.225832,57.313604 0 0 1 64.225832,-57.313604l0,0a64.225832,57.313604 0 0 1 64.225832,57.313604l0,14.328401z"/>
   <path stroke="null" id="svg_77" d="m369.276539,184.498734l0,73.688919l-27.525357,24.562973l0,65.501262l27.525357,0l-22.87614,54.438099a9.175119,8.187658 0 0 0 8.59048,11.063163l32.635898,0a9.175119,8.187658 0 0 0 9.175119,-8.187658l0,-221.066758l-27.525357,0z"/>
  </g>
 </g>
</svg>