<svg width="500" height="500" xmlns="http://www.w3.org/2000/svg">
 <!-- Created with Method Draw - http://github.com/duopixel/Method-Draw/ -->

 <g>
  <title>background</title>
  <rect fill="none" id="canvas_background" height="502" width="502" y="-1" x="-1"/>
  <g display="none" overflow="visible" y="0" x="0" height="100%" width="100%" id="canvasGrid">
   <rect fill="url(#gridpattern)" stroke-width="0" y="0" x="0" height="100%" width="100%"/>
  </g>
 </g>
 <g>
  <title>Layer 1</title>
  <ellipse stroke="#000" ry="239.000001" rx="240.500009" id="svg_1" cy="249.999995" cx="250.000005" stroke-width="0" fill="#fff"/>
  <g stroke="null" id="svg_22">
   <g stroke="null" transform="matrix(11.720488150823838,0,0,11.220489836355947,152.47384045311003,-242.1739889742974) " id="svg_17">
    <g stroke="null" id="svg_19">
     <path stroke="null" id="svg_20" fill="#1A1718" d="m8.603997,34.742863c-0.503,0.327 -1.257,1.347 -1.005,1.715s1.089,0.817 1.508,0.857c0.299,0.029 0.513,-0.275 0.702,-0.556c-0.326,-0.308 -0.619,-0.822 0.01,-1.282c0.838,-0.612 0.67,-1.592 0.251,-1.633c-0.123,-0.012 -0.274,-0.06 -0.427,-0.121c0.002,0.026 0.006,0.056 0.008,0.08c0.042,0.613 -0.544,0.613 -1.047,0.94z"/>
     <path stroke="null" id="svg_21" fill="#1A1718" d="m8.320997,27.863863c-8.837,0 -16,7.163 -16,16s7.163,16 16,16s16,-7.163 16,-16s-7.163,-16 -16,-16zm-4.278,2.493c-0.009,-0.173 0.45,-0.193 0.884,-0.075c0.269,0.073 0.528,0.2 0.66,0.378c0.221,0.297 0.587,1.307 -0.649,1.266c-0.828,-0.027 -1.528,-0.721 -1.511,-1.177c0.009,-0.225 0.188,-0.392 0.616,-0.392zm13.401,5.121c-0.545,0.163 -0.587,0.898 -1.76,1.143c-1.173,0.245 -1.676,-2.205 -1.676,-2.572s-0.545,-0.939 -0.838,-1.347c-0.293,-0.408 -1.634,-0.449 -2.011,-0.449s-0.838,-1.102 -1.341,-0.694c-0.275,0.224 -0.31,0.693 -0.279,1.171c0.26,-0.001 0.68,0.026 1.117,0.176c0.712,0.245 2.556,1.307 2.304,1.633c-0.251,0.327 -1.508,1.021 -1.466,1.307c0.014,0.099 -0.107,0.287 -0.285,0.485c0.121,-0.035 0.235,-0.092 0.327,-0.199c0.419,-0.49 0.964,0.041 1.089,0.531c0.126,0.49 0.964,0.245 1.047,1.143s-1.424,0.817 -1.508,1.552s-2.891,2.532 -3.016,2.736c-0.126,0.204 0.503,1.062 0.293,1.388c-0.209,0.327 -0.838,-0.327 -0.964,-0.612c-0.126,-0.286 -2.639,0 -2.639,0s0.042,1.674 0.485,1.674s0.856,-0.653 1.275,-0.572c0.419,0.082 -0.293,0.939 0,0.817s0.712,0.49 0.796,0.898s0.628,0.572 1.047,0.49s1.047,-0.531 2.011,-0.572c0.964,-0.041 0.587,0.245 2.011,0.327c1.424,0.082 1.592,1.633 3.435,2.123c1.843,0.49 0,1.633 -0.503,2.613s-2.011,1.96 -2.514,2.205s-2.234,2.559 -2.653,3.375s-2.346,1.552 -2.346,1.552s0.062,-0.832 0.062,-1.404s1.25,-3.36 1.418,-4.993s-1.843,-1.96 -2.262,-2.613c-0.419,-0.653 0.67,-1.878 0.67,-1.878s-0.754,-0.735 -1.173,-1.062s-2.011,-0.572 -3.184,-1.062c-1.173,-0.49 -0.251,-1.225 -1.76,-1.96s-1.257,-2.45 -1.173,-3.838c0.084,-1.388 -0.503,-1.715 -1.508,-2.45s-2.43,0.735 -3.519,0.98c-0.227,0.051 -0.425,0.035 -0.597,-0.018c0.512,-0.998 1.139,-1.927 1.866,-2.769c0.325,-0.067 0.655,-0.113 0.953,-0.113c1.131,0 1.341,-0.776 1.76,-0.735s2.179,-0.898 2.262,-1.429c0.084,-0.531 1.885,0.204 2.597,0.204s1.173,-0.531 1.969,-0.653c0.796,-0.122 0,-0.857 -0.293,-1.388c-0.217,-0.393 0.23,-0.628 0.478,-0.725c0.289,-0.018 0.58,-0.03 0.873,-0.03c0.262,0 0.521,0.009 0.779,0.023c0.082,0.005 0.163,0.013 0.245,0.019c0.176,0.013 0.352,0.027 0.527,0.046c0.094,0.01 0.187,0.023 0.28,0.036c0.162,0.021 0.324,0.044 0.484,0.071c0.094,0.016 0.187,0.033 0.279,0.05c0.162,0.031 0.323,0.064 0.484,0.1c0.086,0.019 0.171,0.038 0.256,0.059c0.175,0.043 0.348,0.09 0.52,0.139c0.067,0.019 0.134,0.037 0.201,0.057c0.226,0.069 0.451,0.142 0.672,0.222c0.01,0.004 0.021,0.007 0.031,0.01c0.486,0.176 0.958,0.379 1.417,0.606c0.028,0.014 0.055,0.029 0.083,0.043c0.198,0.1 0.394,0.203 0.586,0.312c0.035,0.02 0.07,0.04 0.105,0.06c0.188,0.108 0.373,0.22 0.556,0.336c0.03,0.019 0.06,0.038 0.089,0.057c0.195,0.127 0.387,0.258 0.575,0.393c0.012,0.009 0.025,0.017 0.037,0.026c1.043,0.758 1.977,1.655 2.776,2.666l0,0c0.196,0.302 0.276,0.484 0.276,0.484c-1.046,0.248 -1.591,-0.364 -2.135,-0.201z"/>
    </g>
   </g>
  </g>
 </g>
</svg>