<svg width="500" height="500" xmlns="http://www.w3.org/2000/svg">
 <!-- Created with Method Draw - http://github.com/duopixel/Method-Draw/ -->

 <g>
  <title>background</title>
  <rect fill="none" id="canvas_background" height="502" width="502" y="-1" x="-1"/>
  <g display="none" overflow="visible" y="0" x="0" height="100%" width="100%" id="canvasGrid">
   <rect fill="url(#gridpattern)" stroke-width="0" y="0" x="0" height="100%" width="100%"/>
  </g>
 </g>
 <g>
  <title>Layer 1</title>
  <ellipse stroke="#1a447b" ry="239.000001" rx="240.500009" id="svg_1" cy="249.999995" cx="250.000005" stroke-width="15" fill="#fff"/>
  <g fill="#1a447b" stroke="null" id="svg_13">
   <g fill="#1a447b" stroke="null" transform="matrix(0.7106216202463067,0,0,0.6981215182998686,-1595.0109791660263,-1562.6411728003739) " id="svg_6">
    <g fill="#1a447b" stroke="null" id="svg_7">
     <path fill="#1a447b" stroke="null" id="svg_8" d="m2596.334528,2341.455067c-68.364,0 -120.425,36.982 -120.425,109.476c0,115.323 25.547,125.535 56.929,125.535c10.765,0 8.758,37.334 8.758,37.334c0,32.365 27.95,35.649 54.738,35.649c26.787,0 54.737,-3.284 54.737,-35.649c0,0 -2.007,-37.334 8.759,-37.334c31.384,0 56.929,-10.212 56.929,-125.535c0,-72.494 -52.061,-109.476 -120.425,-109.476zm-57.293,196.21c-18.139,0 -32.844,-14.705 -32.844,-32.844c0,-18.136 14.705,-32.844 32.844,-32.844c18.136,0 32.844,14.708 32.844,32.844c0,18.14 -14.708,32.844 -32.844,32.844zm57.293,50.478c-46.224,0 -10.947,-60.336 0,-60.336s46.224,60.336 0,60.336zm57.293,-50.478c-18.137,0 -32.842,-14.705 -32.842,-32.844c0,-18.136 14.705,-32.844 32.842,-32.844c18.139,0 32.844,14.708 32.844,32.844c0,18.14 -14.705,32.844 -32.844,32.844z"/>
     <g fill="#1a447b" stroke="null" id="svg_9">
      <path fill="#1a447b" stroke="null" id="svg_10" d="m2405.019528,2690.573067c12.319,5.745 26.215,4.595 48.49,-5.605l67.232,31.35l60.509,-28.215l-106.129,-49.488c-6.504,-23.619 -14.55,-35.008 -26.872,-40.75c-13.591,-6.337 -28.824,-0.792 -35.162,12.798c-4.47,9.587 -2.602,20.19 3.155,28.712c-10.23,1.068 -19.551,6.452 -24.023,16.04c-6.337,13.588 -0.791,28.82 12.8,35.158z"/>
      <path fill="#1a447b" stroke="null" id="svg_11" d="m2787.651528,2756.131067c-12.319,-5.745 -26.218,-4.594 -48.493,5.605l-67.23,-31.35l-60.508,28.215l106.126,49.488c6.505,23.617 14.556,35.008 26.875,40.753c13.592,6.337 28.821,0.789 35.159,-12.798c4.473,-9.59 2.604,-20.193 -3.152,-28.712c10.228,-1.071 19.551,-6.452 24.021,-16.042c6.337,-13.589 0.793,-28.823 -12.798,-35.159z"/>
     </g>
    </g>
    <path fill="#1a447b" stroke="null" id="svg_12" d="m2800.448528,2655.416067c-4.47,-9.59 -13.793,-14.974 -24.021,-16.039c5.755,-8.527 7.625,-19.128 3.152,-28.715c-6.338,-13.589 -21.567,-19.135 -35.159,-12.798c-12.319,5.748 -20.37,17.133 -26.875,40.75l-264.04,123.125c-22.272,-10.2 -36.168,-11.354 -48.49,-5.61c-13.589,6.34 -19.135,21.572 -12.797,35.162c4.473,9.59 13.793,14.974 24.023,16.042c-5.76,8.519 -7.625,19.122 -3.155,28.71c6.338,13.589 21.571,19.135 35.16,12.797c12.322,-5.745 20.373,-17.13 26.877,-40.75l264.037,-123.122c22.272,10.2 36.171,11.353 48.49,5.605c13.592,-6.335 19.136,-21.567 12.798,-35.157z"/>
   </g>
  </g>
 </g>
</svg>
