<svg width="500" height="500" xmlns="http://www.w3.org/2000/svg" class="svg-inline--fa fa-plane fa-w-18">

 <g>
  <title>background</title>
  <rect fill="none" id="canvas_background" height="128" width="128" y="-1" x="-1"/>
 </g>
 <g>
  <title>Layer 1</title>
  <ellipse stroke="null" ry="244.999997" rx="245.500015" id="svg_3" cy="249.999992" cx="250.000004" stroke-opacity="null" stroke-width="null" fill="#228B22"/>
  <path stroke="null" id="svg_1" d="m374.332163,213.750002l-74.010527,0l-68.059379,-109.932897a10.370151,9.570868 0 0 0 -9.001193,-4.81711l-42.415693,0c-6.883646,0 -11.850491,6.078164 -9.959593,12.186212l31.750251,102.563795l-66.608827,0l-27.97493,-34.425002c-1.955655,-2.408555 -5.031602,-3.825 -8.288868,-3.825l-25.896237,0c-6.741181,0 -11.688599,5.845078 -10.050253,11.881407l20.404862,64.618598l-20.404862,64.618598c-1.638347,6.036328 3.309072,11.881407 10.050253,11.881407l25.896237,0c3.263742,0 6.333213,-1.416445 8.288868,-3.825l27.97493,-34.425002l66.608827,0l-31.750251,102.557819c-1.890898,6.108047 3.075947,12.192188 9.959593,12.192188l42.415693,0c3.717039,0 7.149149,-1.840781 8.994717,-4.81711l68.065854,-109.932897l74.010527,0c22.891523,0 62.166511,-17.122853 62.166511,-38.250002s-39.274989,-38.250002 -62.166511,-38.250002z" fill="#ffffff"/>
  <path id="svg_2" d="m20,-88l21,58" stroke-opacity="null" stroke-width="null" stroke="null" fill="#0000ff"/>
 </g>
</svg>
