<svg width="500" height="500" xmlns="http://www.w3.org/2000/svg" class="svg-inline--fa fa-apple-alt fa-w-14">

 <g>
  <title>background</title>
  <rect fill="none" id="canvas_background" height="502" width="502" y="-1" x="-1"/>
 </g>
 <g>
  <title>Layer 1</title>
  <ellipse stroke="#191919" ry="246.999985" rx="247.99998" id="svg_2" cy="251.453137" cx="249.999996" stroke-width="null" fill="#ffffff"/>
  <path stroke="null" id="svg_1" d="m347.693957,158.966802c19.999308,3.347442 36.402283,13.382598 49.224327,30.10547c11.281858,14.816192 18.975085,33.452911 23.071978,55.910158c3.596333,20.550567 3.326801,41.093966 -0.770093,61.644534c-6.153041,33.925997 -18.459123,62.36133 -36.918245,85.298831c-22.055456,27.718536 -49.740289,41.57422 -83.069902,41.57422c-8.209188,0 -17.173068,-2.386934 -26.922442,-7.167969c-6.669003,-3.820527 -14.100398,-5.734375 -22.309586,-5.734375s-15.632882,1.913848 -22.309586,5.734375c-9.749374,4.781035 -18.713253,7.167969 -26.922442,7.167969c-33.329613,0 -61.014447,-13.855684 -83.069902,-41.57422c-18.459123,-22.937501 -30.765204,-51.372834 -36.918245,-85.298831c-4.096893,-20.550567 -4.366426,-41.093966 -0.770093,-61.644534c4.096893,-22.457247 11.79012,-41.093966 23.071978,-55.910158c12.822044,-16.722872 29.225019,-26.758028 49.224327,-30.10547c12.306082,-1.913848 29.225019,-0.236543 50.764512,5.017578c18.459123,4.781035 34.099706,10.515411 46.92175,17.203126c12.822044,-6.687715 28.462627,-12.42209 46.92175,-17.203126c21.547194,-5.254121 38.473833,-6.931426 50.779914,-5.017578zm-42.308894,-29.388673c-7.177264,6.214629 -16.672508,10.751954 -28.462627,13.619141c-8.209188,2.386934 -17.173068,3.583985 -26.922442,3.583985l-11.535989,-0.716797c-1.024223,-6.687715 -1.024223,-14.335938 0,-22.937501c2.056148,-17.203126 7.947357,-30.342013 17.68903,-39.42383c7.177264,-6.214629 16.672508,-10.751954 28.462627,-13.619141c8.209188,-2.386934 17.173068,-3.583985 26.922442,-3.583985l11.535989,0.716797l0.770093,10.751954c0,9.081817 -1.286055,17.439669 -3.842763,25.087892c-3.07267,10.988497 -7.939656,19.83377 -14.61636,26.521485z" fill="red"/>
 </g>
</svg>