<svg width="533" height="533" xmlns="http://www.w3.org/2000/svg" preserveAspectRatio="xMidYMid meet">
 <metadata>Created by potrace 1.16, written by Peter Selinger 2001-2019</metadata>

 <g>
  <title>background</title>
  <rect fill="none" id="canvas_background" height="535" width="535" y="-1" x="-1"/>
 </g>
 <g>
  <title>Layer 1</title>
  <rect id="svg_7" height="372" width="472" y="86.953125" x="29.5" stroke-width="1.5" stroke="#0000cd" fill="#fff"/>
  <g id="svg_1" fill="#0000cd" transform="translate(0,533) scale(0.10000000149011612,-0.10000000149011612) ">
   <path id="svg_3" d="m560,4663c-49,-8 -136,-47 -183,-82c-98,-72 -182,-213 -228,-381l-23,-85l-4,-1420c-3,-1471 -1,-1574 37,-1708c51,-177 166,-329 296,-393l60,-29l2135,-3c1671,-2 2144,0 2175,10c78,24 181,101 237,178c69,95 119,223 138,355c8,58 10,488 8,1555l-3,1475l-23,79c-70,248 -217,411 -401,446c-52,10 -4162,13 -4221,3zm4250,-258c53,-37 113,-126 143,-214l22,-66l3,-1488c3,-1638 6,-1548 -59,-1683c-20,-41 -50,-81 -85,-113c-49,-45 -59,-50 -116,-56c-35,-3 -981,-5 -2103,-3c-1947,3 -2041,4 -2072,21c-68,38 -134,139 -170,262c-17,56 -18,156 -21,1510c-2,1287 -1,1459 13,1534c29,152 102,272 190,312c38,18 125,19 2126,16l2086,-2l43,-30z"/>
   <path id="svg_4" d="m4360,4361c-24,-8 -70,-18 -182,-42c-29,-6 -69,-15 -88,-19c-19,-5 -60,-13 -90,-19c-30,-5 -80,-15 -110,-21c-81,-17 -598,-25 -760,-11c-129,11 -160,15 -310,43c-79,14 -247,14 -315,0c-190,-40 -330,-51 -655,-51c-347,0 -475,14 -795,91c-22,5 -63,12 -90,15c-50,5 -50,5 -235,-112c-202,-128 -250,-162 -250,-177c0,-5 33,-53 73,-107c83,-110 142,-221 176,-331c21,-65 24,-95 24,-250c1,-101 -3,-190 -10,-210c-6,-19 -16,-62 -23,-95c-7,-33 -16,-71 -20,-85c-11,-34 -23,-78 -75,-270c-24,-91 -49,-178 -54,-195c-5,-16 -14,-52 -20,-80c-7,-27 -16,-66 -21,-85c-28,-118 -33,-157 -32,-279c1,-206 47,-351 163,-506c47,-63 150,-163 209,-202c44,-30 192,-107 238,-124c12,-5 32,-13 45,-18c106,-42 310,-94 517,-131c36,-6 83,-15 105,-20c22,-5 69,-14 105,-20c126,-22 255,-48 300,-60c19,-5 67,-17 105,-26c88,-20 229,-68 313,-105c35,-16 74,-29 87,-29c12,0 55,13 94,30c66,27 252,87 341,110c75,19 230,52 310,65c19,3 53,10 75,15c22,4 65,13 95,19c30,6 91,18 135,27c44,9 98,20 120,24c54,11 193,48 230,61c216,77 381,166 499,268c138,120 220,246 274,421c33,107 22,289 -27,460c-5,19 -19,71 -31,115c-12,44 -26,95 -31,113c-5,17 -13,47 -18,65c-5,17 -27,93 -49,167c-40,136 -70,257 -92,363c-14,71 -16,413 -2,459c6,18 16,53 23,78c28,101 90,204 202,335c15,18 27,37 27,43c0,10 1,10 -215,148c-179,115 -243,154 -253,153c-4,0 -18,-4 -32,-8zm-2402,-446c140,-29 230,-75 318,-162c141,-140 205,-333 205,-623c0,-298 -62,-507 -198,-667c-172,-203 -297,-253 -631,-253l-162,0l0,-399c0,-220 -3,-406 -6,-415c-5,-14 -35,-16 -224,-16c-217,0 -218,0 -224,23c-8,30 -8,2512 1,2520c3,4 197,7 429,7c332,0 438,-3 492,-15zm1699,0c101,-16 222,-54 281,-86c264,-148 433,-427 509,-839c25,-136 25,-528 0,-655c-86,-437 -274,-735 -545,-865c-160,-76 -295,-92 -752,-88l-335,3l-3,1273l-2,1272l377,0c288,0 400,-4 470,-15z"/>
   <path id="svg_5" d="m1495,3449c-3,-8 -4,-181 -3,-384l3,-370l85,-3c101,-4 221,13 271,38c83,43 133,122 155,245c42,227 -32,409 -185,459c-26,9 -107,19 -183,22c-113,6 -138,5 -143,-7z"/>
   <path id="svg_6" d="m3273,3454c-10,-4 -13,-171 -13,-784c0,-428 3,-785 6,-794c5,-13 25,-16 118,-16c223,1 308,29 416,140c74,75 107,132 144,241c70,209 75,582 10,799c-29,99 -83,198 -141,260c-103,112 -188,145 -393,154c-74,3 -141,3 -147,0z"/>
  </g>
 </g>
</svg>
