<svg width="256" height="256" xmlns="http://www.w3.org/2000/svg" preserveAspectRatio="xMidYMid meet">
 <metadata>Created by potrace 1.16, written by Peter Selinger 2001-2019</metadata>

 <g>
  <title>background</title>
  <rect fill="none" id="canvas_background" height="402" width="582" y="-1" x="-1"/>
 </g>
 <g>
  <title>Layer 1</title>
  <rect stroke="#000" id="svg_5" height="177" width="227.000004" y="42.453125" x="14.999996" stroke-width="1.5" fill="#e1ad01"/>
  <g id="svg_1" fill="#000" transform="translate(0,256) scale(0.10000000149011612,-0.10000000149011612) ">
   <path stroke="#FABA6F" id="svg_2" d="m209,2217c-56,-30 -113,-112 -134,-192c-23,-89 -23,-1452 0,-1540c21,-82 62,-144 119,-183l48,-32l1035,0c1006,0 1035,1 1072,20c48,24 87,69 120,140l26,55l0,770l0,770l-26,55c-34,73 -74,119 -124,141c-38,18 -92,19 -1066,19l-1026,0l-44,-23zm2119,-120c63,-65 62,-45 62,-841c0,-796 1,-784 -62,-846l-30,-30l-1017,0l-1017,0l-26,28c-14,15 -34,43 -44,62c-18,33 -19,72 -19,785l0,750l22,42c12,22 34,51 49,62l27,21l1011,0l1012,0l32,-33z"/>
   <path stroke="#FABA6F" id="svg_3" d="m1126,1843l-156,-168l0,-132l0,-133l-115,0l-115,0l0,261l0,260l-150,-77c-82,-43 -150,-81 -150,-84c0,-4 53,-27 117,-51l118,-45l3,-132l3,-132l-54,0c-30,0 -75,-3 -101,-6l-46,-7l0,-463l0,-464l803,2l802,3l3,461l2,461l-127,6c-71,4 -183,7 -249,7l-121,0l-5,134l-4,134l-134,148c-73,82 -141,157 -150,167c-17,18 -24,12 -174,-150zm284,-84c25,-11 55,-30 68,-41c25,-24 26,-46 15,-210l-6,-98l-209,0l-208,0l1,123c2,176 2,176 78,215c56,28 74,32 140,32c55,0 89,-6 121,-21zm170,-556c0,-71 3,-138 6,-150c6,-23 5,-23 -100,-23l-106,0l0,150l0,150l100,0l100,0l0,-127zm330,-23l0,-150l-100,0l-100,0l0,150l0,150l100,0l100,0l0,-150zm-690,-11l0,-152l-77,7c-42,3 -89,6 -105,6l-28,0l0,145l0,145l105,0l105,0l0,-151zm-360,-9l0,-150l-100,0l-100,0l0,150l0,150l100,0l100,0l0,-150zm630,-445l0,-205l-190,0l-190,0l0,205l0,205l190,0l190,0l0,-205z"/>
   <path stroke="#FABA6F" id="svg_4" d="m1249,1753c-1,-5 -2,-13 -3,-20c0,-6 -13,-21 -28,-33c-24,-19 -28,-29 -28,-74c0,-61 -15,-112 -36,-120c-33,-13 -10,-26 46,-26c57,0 61,-2 72,-27l11,-28l10,28c10,26 14,27 76,27l64,0l-24,26c-20,21 -24,38 -27,100c-4,69 -7,77 -33,96c-16,12 -29,30 -29,40c0,14 -8,18 -35,18c-19,0 -36,-3 -36,-7z"/>
  </g>
 </g>
</svg>
