<svg width="533" height="533" xmlns="http://www.w3.org/2000/svg" preserveAspectRatio="xMidYMid meet">
 <metadata>Created by potrace 1.16, written by Peter Selinger 2001-2019</metadata>

 <g>
  <title>background</title>
  <rect fill="none" id="canvas_background" height="402" width="582" y="-1" x="-1"/>
 </g>
 <g>
  <title>Layer 1</title>
  <rect id="svg_11" height="382" width="483" y="79.953125" x="25.5" stroke-width="1.5" stroke="#8e4785" fill="#fff"/>
  <g id="svg_1" fill="#8e4785" transform="translate(0,533) scale(0.10000000149011612,-0.10000000149011612) ">

   <path id="svg_3" d="m495,4701c-178,-45 -325,-216 -388,-454l-22,-82l0,-1545l0,-1545l23,-83c55,-202 166,-354 311,-425l66,-32l2175,0c2395,0 2213,-5 2318,63c105,68 190,188 243,340c49,139 49,151 49,1682c0,1541 0,1543 -51,1691c-57,167 -165,301 -291,360l-73,34l-2165,2c-1191,0 -2178,-2 -2195,-6zm4344,-241c65,-33 132,-125 169,-235c32,-91 33,-175 30,-1645c-3,-1372 -4,-1479 -21,-1533c-39,-133 -109,-235 -181,-268c-39,-18 -123,-19 -2152,-19c-1161,0 -2126,3 -2143,6c-53,11 -133,92 -170,174c-64,137 -60,45 -60,1680c0,1580 -2,1535 45,1650c34,86 86,153 149,191c29,18 105,19 2163,19c2101,0 2133,0 2171,-20z"/>
   <path id="svg_4" d="m2669,4347c-25,-12 -65,-31 -90,-41c-24,-11 -66,-29 -94,-41c-80,-36 -306,-136 -352,-156c-24,-11 -63,-28 -88,-39c-106,-47 -138,-61 -285,-125c-150,-65 -184,-80 -280,-123c-99,-44 -143,-63 -335,-147c-110,-48 -220,-96 -245,-107c-25,-11 -65,-29 -90,-40c-240,-106 -261,-117 -243,-140c5,-7 27,-57 47,-110c21,-54 41,-98 45,-98c7,0 147,60 336,144c17,8 64,28 105,46c41,18 111,48 155,67c44,20 99,44 123,54c23,11 63,28 90,40c26,12 62,27 80,35c17,8 47,20 65,28c38,17 92,40 207,91c116,51 153,67 240,105c71,31 127,55 195,85c42,19 353,154 395,172c19,8 43,19 52,24c25,13 32,12 86,-12c26,-12 62,-28 80,-35c17,-8 47,-20 65,-28c17,-8 106,-47 197,-87c91,-39 184,-80 208,-90c23,-11 61,-27 85,-38c23,-10 112,-49 197,-86c85,-37 174,-76 198,-86c120,-53 139,-62 167,-75c103,-46 255,-112 345,-151c95,-41 128,-55 225,-99c130,-58 239,-104 245,-104c10,0 90,199 90,223c0,11 -15,24 -42,36c-24,10 -68,30 -98,44c-52,24 -97,44 -192,86c-24,10 -153,67 -288,126c-309,135 -301,132 -597,264c-101,44 -185,81 -188,81c-3,0 -38,15 -78,34c-40,19 -146,66 -236,105c-90,40 -184,81 -210,93c-25,11 -59,26 -76,33c-16,7 -56,25 -88,39c-68,31 -69,31 -128,3z"/>
   <path id="svg_5" d="m1695,3338c-49,-17 -92,-55 -114,-101c-26,-54 -26,-77 -1,-126c37,-73 107,-111 205,-111c131,0 215,69 215,175c0,70 -52,135 -130,162c-42,15 -133,15 -175,1z"/>
   <path id="svg_6" d="m3705,3330c-52,-26 -103,-84 -111,-127c-14,-73 36,-156 112,-188c21,-9 67,-15 108,-15c62,0 78,4 118,29c66,42 91,82 91,147c0,46 -5,61 -30,91c-64,79 -195,108 -288,63z"/>
   <path id="svg_7" d="m1692,2869c-46,-23 -64,-45 -279,-337c-378,-514 -385,-525 -322,-558c55,-28 92,1 169,137c56,98 164,270 176,280c11,9 18,9 26,1c12,-12 11,-16 -116,-389c-47,-139 -86,-260 -86,-271c0,-37 19,-42 162,-42l138,0l0,-359l0,-360l26,-20c34,-27 64,-27 98,0l26,20l0,335l0,335l25,24c29,30 64,32 96,6l24,-19l5,-346c4,-261 8,-348 18,-358c7,-7 30,-13 51,-13c74,0 71,-15 71,385c0,317 2,359 16,364c9,3 70,6 135,6c118,0 158,8 159,33c1,7 -50,164 -112,349c-90,269 -110,340 -100,350c10,10 15,9 26,-2c12,-13 111,-170 166,-265c61,-104 93,-152 111,-167c41,-34 119,-15 119,28c0,28 3,24 -249,364c-241,326 -316,424 -346,454c-57,57 -158,72 -233,35z"/>
   <path id="svg_8" d="m3712,2869c-66,-26 -88,-53 -169,-210c-36,-68 -103,-198 -151,-289c-190,-365 -191,-366 -150,-394c32,-23 76,-20 99,7c11,12 52,101 91,197c38,96 73,184 78,195c5,11 14,35 22,53c9,24 18,32 33,30c20,-3 20,-12 23,-745l2,-742l27,-21c20,-16 36,-20 58,-16c61,13 60,3 65,397c6,398 2,379 72,379c68,0 68,0 68,-388l0,-343l25,-24c29,-30 64,-32 96,-6l24,19l5,744c5,711 6,743 23,743c15,0 38,-48 111,-227c50,-125 100,-236 110,-247c34,-37 105,-23 120,24c6,21 -9,55 -194,410c-48,94 -113,219 -144,279c-61,118 -97,157 -165,181c-59,20 -115,18 -179,-6z"/>
   <path id="svg_9" d="m2813,2526c-104,-38 -143,-157 -76,-236c38,-45 78,-62 148,-62c106,0 175,61 175,155c0,110 -130,185 -247,143z"/>
   <path id="svg_10" d="m2815,2108c-22,-6 -52,-19 -67,-29c-14,-11 -94,-121 -178,-245c-159,-237 -171,-266 -117,-272c32,-4 51,9 70,47c60,118 123,229 139,246c19,20 19,20 34,1c12,-17 14,-93 14,-467l0,-447l26,-6c29,-8 65,1 76,18c4,6 8,103 8,216c0,237 4,253 68,248c58,-5 62,-22 62,-261l0,-207l25,-12c18,-8 35,-9 53,-2l27,9l5,455l5,455l21,3c18,3 31,-15 84,-115c83,-157 105,-185 138,-181c54,6 37,47 -121,286c-136,206 -150,225 -192,243c-56,25 -127,31 -180,17z"/>
  </g>
 </g>
</svg>
