<svg width="500" height="500" xmlns="http://www.w3.org/2000/svg" class="svg-inline--fa fa-apple-alt fa-w-14">
 <g>
  <title>background</title>
  <rect x="-1" y="-1" width="502" height="502" id="canvas_background" fill="none"/>
 </g>

 <g>
  <title>Layer 1</title>
  <ellipse ry="247.999993" rx="246.499988" id="svg_3" cy="250.453133" cx="249.500014" stroke-width="" fill="#ffffff"/>
  <path fill="red" d="m347.69396,158.9668c19.9993,3.34744 36.40228,13.3826 49.22432,30.10547c11.28186,14.81619 18.97509,33.45291 23.07198,55.91016c3.59634,20.55057 3.3268,41.09397 -0.77009,61.64453c-6.15304,33.926 -18.45912,62.36133 -36.91825,85.29883c-22.05545,27.71854 -49.74028,41.57422 -83.0699,41.57422c-8.20919,0 -17.17307,-2.38693 -26.92244,-7.16796c-6.669,-3.82053 -14.1004,-5.73438 -22.30959,-5.73438s-15.63288,1.91385 -22.30958,5.73438c-9.74938,4.78103 -18.71325,7.16796 -26.92244,7.16796c-33.32962,0 -61.01445,-13.85568 -83.06991,-41.57422c-18.45912,-22.9375 -30.7652,-51.37283 -36.91824,-85.29883c-4.09689,-20.55056 -4.36643,-41.09396 -0.77009,-61.64453c4.09689,-22.45725 11.79012,-41.09397 23.07197,-55.91016c12.82205,-16.72287 29.22502,-26.75803 49.22433,-30.10547c12.30608,-1.91385 29.22502,-0.23654 50.76451,5.01758c18.45913,4.78103 34.09971,10.51541 46.92175,17.20313c12.82205,-6.68772 28.46263,-12.42209 46.92175,-17.20313c21.5472,-5.25412 38.47384,-6.93143 50.77992,-5.01758zm-42.3089,-29.38867c-7.17726,6.21463 -16.6725,10.75195 -28.46262,13.61914c-8.20919,2.38693 -17.17307,3.58399 -26.92245,3.58399l-11.53598,-0.7168c-1.02423,-6.68772 -1.02423,-14.33594 0,-22.9375c2.05614,-17.20313 7.94735,-30.34202 17.68902,-39.42383c7.17727,-6.21463 16.67251,-10.75196 28.46263,-13.61914c8.20919,-2.38694 17.17307,-3.58399 26.92244,-3.58399l11.53599,0.7168l0.7701,10.75195c0,9.08182 -1.28606,17.43967 -3.84277,25.08789c-3.07267,10.9885 -7.93965,19.83377 -14.61636,26.52149z" id="svg_1" stroke="null"/>
 </g>
</svg>
